  0
SECTION
  2
HEADER
  9
$ACADVER
  1
AC1014
  9
$HANDSEED
  5
FFFF
  9
$MEASUREMENT
 70
     1
  0
ENDSEC
  0
SECTION
  2
TABLES
  0
TABLE
  2
VPORT
  5
8
330
0
100
AcDbSymbolTable
 70
     4
  0
VPORT
  5
2E
330
8
100
AcDbSymbolTableRecord
100
AcDbViewportTableRecord
  2
*ACTIVE
 70
     0
 10
0.0
 20
0.0
 11
1.0
 21
1.0
 12
210.0
 22
148.5
 13
0.0
 23
0.0
 14
10.0
 24
10.0
 15
10.0
 25
10.0
 16
0.0
 26
0.0
 36
1.0
 17
0.0
 27
0.0
 37
0.0
 40
341.0
 41
1.24
 42
50.0
 43
0.0
 44
0.0
 50
0.0
 51
0.0
 71
     0
 72
   100
 73
     1
 74
     3
 75
     0
 76
     0
 77
     0
 78
     0
  0
ENDTAB
  0
TABLE
  2
LTYPE
  5
5
330
0
100
AcDbSymbolTable
 70
     1
  0
LTYPE
  5
14
330
5
100
AcDbSymbolTableRecord
100
AcDbLinetypeTableRecord
  2
BYBLOCK
 70
     0
  3

 72
    65
 73
     0
 40
0.0
  0
LTYPE
  5
15
330
5
100
AcDbSymbolTableRecord
100
AcDbLinetypeTableRecord
  2
BYLAYER
 70
     0
  3

 72
    65
 73
     0
 40
0.0
  0
LTYPE
  5
16
330
5
100
AcDbSymbolTableRecord
100
AcDbLinetypeTableRecord
  2
CONTINUOUS
 70
     0
  3
Solid line
 72
    65
 73
     0
 40
0.0
  0
ENDTAB
  0
TABLE
  2
LAYER
  5
2
100
AcDbSymbolTable
 70
2
  0
LAYER
  5
50
100
AcDbSymbolTableRecord
100
AcDbLayerTableRecord
  2
0
 70
0
  6
CONTINUOUS
  0
LAYER
  5
51
100
AcDbSymbolTableRecord
100
AcDbLayerTableRecord
  2
Layer_1
 70
0
  6
CONTINUOUS
  0
ENDTAB
  0
TABLE
  2
STYLE
  5
3
330
0
100
AcDbSymbolTable
 70
     1
  0
STYLE
  5
11
330
3
100
AcDbSymbolTableRecord
100
AcDbTextStyleTableRecord
  2
STANDARD
 70
     0
 40
0.0
 41
1.0
 50
0.0
 71
     0
 42
2.5
  3
txt
  4

  0
ENDTAB
  0
TABLE
  2
VIEW
  5
6
330
0
100
AcDbSymbolTable
 70
     0
  0
ENDTAB
  0
TABLE
  2
UCS
  5
7
330
0
100
AcDbSymbolTable
 70
     0
  0
ENDTAB
  0
TABLE
  2
APPID
  5
9
330
0
100
AcDbSymbolTable
 70
     2
  0
APPID
  5
12
330
9
100
AcDbSymbolTableRecord
100
AcDbRegAppTableRecord
  2
ACAD
 70
     0
  0
ENDTAB
  0
TABLE
  2
DIMSTYLE
  5
A
330
0
100
AcDbSymbolTable
 70
     1
  0
DIMSTYLE
105
27
330
A
100
AcDbSymbolTableRecord
100
AcDbDimStyleTableRecord
  2
ISO-25
 70
     0
  3

  4

  5

  6

  7

 40
1.0
 41
2.5
 42
0.625
 43
3.75
 44
1.25
 45
0.0
 46
0.0
 47
0.0
 48
0.0
140
2.5
141
2.5
142
0.0
143
0.03937007874016
144
1.0
145
0.0
146
1.0
147
0.625
 71
     0
 72
     0
 73
     0
 74
     0
 75
     0
 76
     0
 77
     1
 78
     8
170
     0
171
     3
172
     1
173
     0
174
     0
175
     0
176
     0
177
     0
178
     0
270
     2
271
     2
272
     2
273
     2
274
     3
340
11
275
     0
280
     0
281
     0
282
     0
283
     0
284
     8
285
     0
286
     0
287
     3
288
     0
  0
ENDTAB
  0
TABLE
  2
BLOCK_RECORD
  5
1
330
0
100
AcDbSymbolTable
 70
     1
  0
BLOCK_RECORD
  5
1F
330
1
100
AcDbSymbolTableRecord
100
AcDbBlockTableRecord
  2
*MODEL_SPACE
  0
BLOCK_RECORD
  5
1B
330
1
100
AcDbSymbolTableRecord
100
AcDbBlockTableRecord
  2
*PAPER_SPACE
  0
ENDTAB
  0
ENDSEC
  0
SECTION
  2
BLOCKS
  0
BLOCK
  5
20
330
1F
100
AcDbEntity
  8
0
100
AcDbBlockBegin
  2
*MODEL_SPACE
 70
     0
 10
0.0
 20
0.0
 30
0.0
  3
*MODEL_SPACE
  1

  0
ENDBLK
  5
21
330
1F
100
AcDbEntity
  8
0
100
AcDbBlockEnd
  0
BLOCK
  5
1C
330
1B
100
AcDbEntity
 67
     1
  8
0
100
AcDbBlockBegin
  2
*PAPER_SPACE
  1

  0
ENDBLK
  5
1D
330
1B
100
AcDbEntity
 67
     1
  8
0
100
AcDbBlockEnd
  0
ENDSEC
  0
SECTION
  2
ENTITIES
  0
LWPOLYLINE
  5
100
100
AcDbEntity
  8
Layer_1
 62
7
100
AcDbPolyline
 90
4
 70
0
 10
223.244280
 20
629.849204
 30
0.0
 10
223.671862
 20
707.987420
 30
0.0
 10
216.702367
 20
707.224570
 30
0.0
 10
215.417611
 20
629.706365
 30
0.0
  0
LWPOLYLINE
  5
101
100
AcDbEntity
  8
Layer_1
 62
7
100
AcDbPolyline
 90
2
 70
0
 10
223.244280
 20
629.849204
 30
0.0
 10
223.244280
 20
629.849204
 30
0.0
  0
LWPOLYLINE
  5
102
100
AcDbEntity
  8
Layer_1
 62
7
100
AcDbPolyline
 90
5
 70
0
 10
232.059584
 20
627.410214
 30
0.0
 10
238.551914
 20
627.410214
 30
0.0
 10
238.551914
 20
630.865259
 30
0.0
 10
232.059584
 20
630.865259
 30
0.0
 10
232.059584
 20
627.410214
 30
0.0
  0
LWPOLYLINE
  5
103
100
AcDbEntity
  8
Layer_1
 62
7
100
AcDbPolyline
 90
14
 70
0
 10
244.522723
 20
677.616471
 30
0.0
 10
244.522723
 20
675.941467
 30
0.0
 10
241.097720
 20
675.941467
 30
0.0
 10
241.097720
 20
627.416468
 30
0.0
 10
247.597722
 20
627.416468
 30
0.0
 10
247.597722
 20
647.491468
 30
0.0
 10
267.072721
 20
647.491468
 30
0.0
 10
267.072721
 20
627.416468
 30
0.0
 10
273.547721
 20
627.416468
 30
0.0
 10
273.547721
 20
675.941467
 30
0.0
 10
269.647721
 20
675.941467
 30
0.0
 10
269.647721
 20
677.616471
 30
0.0
 10
244.522723
 20
677.616471
 30
0.0
 10
244.522723
 20
677.616471
 30
0.0
  0
LWPOLYLINE
  5
104
100
AcDbEntity
  8
Layer_1
 62
7
100
AcDbPolyline
 90
6
 70
0
 10
247.597722
 20
667.591469
 30
0.0
 10
267.072721
 20
667.591469
 30
0.0
 10
267.072721
 20
657.541466
 30
0.0
 10
247.597722
 20
657.541466
 30
0.0
 10
247.597722
 20
667.591469
 30
0.0
 10
247.597722
 20
667.591469
 30
0.0
  0
LWPOLYLINE
  5
105
100
AcDbEntity
  8
Layer_1
 62
7
100
AcDbPolyline
 90
5
 70
0
 10
276.119859
 20
627.410214
 30
0.0
 10
282.612281
 20
627.410214
 30
0.0
 10
282.612281
 20
630.865259
 30
0.0
 10
276.119859
 20
630.865259
 30
0.0
 10
276.119859
 20
627.410214
 30
0.0
  0
LWPOLYLINE
  5
106
100
AcDbEntity
  8
Layer_1
 62
7
100
AcDbPolyline
 90
13
 70
0
 10
291.645844
 20
657.540165
 30
0.0
 10
298.138174
 20
657.540165
 30
0.0
 10
298.138174
 20
654.559040
 30
0.0
 10
304.628553
 20
654.559040
 30
0.0
 10
304.628553
 20
657.540165
 30
0.0
 10
298.138174
 20
657.540165
 30
0.0
 10
298.138174
 20
667.584630
 30
0.0
 10
291.645844
 20
667.584630
 30
0.0
 10
291.645844
 20
677.628955
 30
0.0
 10
285.153422
 20
677.628955
 30
0.0
 10
285.153422
 20
627.410214
 30
0.0
 10
291.645844
 20
627.410214
 30
0.0
 10
291.645844
 20
657.540165
 30
0.0
  0
LWPOLYLINE
  5
107
100
AcDbEntity
  8
Layer_1
 62
7
100
AcDbPolyline
 90
9
 70
0
 10
311.120882
 20
627.410214
 30
0.0
 10
317.613216
 20
627.410214
 30
0.0
 10
317.613216
 20
677.628955
 30
0.0
 10
311.120882
 20
677.628955
 30
0.0
 10
311.120882
 20
667.584630
 30
0.0
 10
304.628553
 20
667.584630
 30
0.0
 10
304.628553
 20
657.540165
 30
0.0
 10
311.120882
 20
657.540165
 30
0.0
 10
311.120882
 20
627.410214
 30
0.0
  0
LWPOLYLINE
  5
108
100
AcDbEntity
  8
Layer_1
 62
7
100
AcDbPolyline
 90
5
 70
0
 10
320.180227
 20
627.410214
 30
0.0
 10
326.672556
 20
627.410214
 30
0.0
 10
326.672556
 20
631.335884
 30
0.0
 10
320.180227
 20
631.335884
 30
0.0
 10
320.180227
 20
627.410214
 30
0.0
  0
LWPOLYLINE
  5
109
100
AcDbEntity
  8
Layer_1
 62
7
100
AcDbPolyline
 90
13
 70
0
 10
330.188694
 20
672.291274
 30
0.0
 10
337.324008
 20
672.291274
 30
0.0
 10
337.324008
 20
631.335884
 30
0.0
 10
330.188694
 20
631.335884
 30
0.0
 10
330.188694
 20
627.410214
 30
0.0
 10
350.949609
 20
627.410214
 30
0.0
 10
350.949609
 20
631.335884
 30
0.0
 10
343.814387
 20
631.335884
 30
0.0
 10
343.814387
 20
672.291274
 30
0.0
 10
350.949609
 20
672.291274
 30
0.0
 10
350.949609
 20
677.628955
 30
0.0
 10
330.188694
 20
677.628955
 30
0.0
 10
330.188694
 20
672.291274
 30
0.0
  0
LWPOLYLINE
  5
10a
100
AcDbEntity
  8
Layer_1
 62
7
100
AcDbPolyline
 90
5
 70
0
 10
295.290519
 20
665.575738
 30
0.0
 10
306.741410
 20
665.575738
 30
0.0
 10
306.741410
 20
657.549636
 30
0.0
 10
295.290519
 20
657.549636
 30
0.0
 10
295.290519
 20
665.575738
 30
0.0
  0
LWPOLYLINE
  5
10b
100
AcDbEntity
  8
Layer_1
 62
7
100
AcDbPolyline
 90
5
 70
0
 10
162.533662
 20
736.200627
 30
0.0
 10
167.809903
 20
735.119926
 30
0.0
 10
166.570522
 20
730.519207
 30
0.0
 10
161.294282
 20
731.599908
 30
0.0
 10
162.533662
 20
736.200627
 30
0.0
  0
LWPOLYLINE
  5
10c
100
AcDbEntity
  8
Layer_1
 62
7
100
AcDbPolyline
 90
5
 70
0
 10
166.570522
 20
730.519207
 30
0.0
 10
171.846762
 20
729.438505
 30
0.0
 10
170.607382
 20
724.837781
 30
0.0
 10
165.331142
 20
725.918482
 30
0.0
 10
166.570522
 20
730.519207
 30
0.0
  0
LWPOLYLINE
  5
10d
100
AcDbEntity
  8
Layer_1
 62
7
100
AcDbPolyline
 90
5
 70
0
 10
170.607382
 20
724.837786
 30
0.0
 10
175.883622
 20
723.757085
 30
0.0
 10
174.644242
 20
719.156361
 30
0.0
 10
169.368002
 20
720.237062
 30
0.0
 10
170.607382
 20
724.837786
 30
0.0
  0
LWPOLYLINE
  5
10e
100
AcDbEntity
  8
Layer_1
 62
7
100
AcDbPolyline
 90
5
 70
0
 10
186.754821
 20
702.112099
 30
0.0
 10
192.031061
 20
701.031397
 30
0.0
 10
190.791681
 20
696.430673
 30
0.0
 10
185.515441
 20
697.511375
 30
0.0
 10
186.754821
 20
702.112099
 30
0.0
  0
LWPOLYLINE
  5
10f
100
AcDbEntity
  8
Layer_1
 62
7
100
AcDbPolyline
 90
5
 70
0
 10
189.552300
 20
691.829954
 30
0.0
 10
194.828539
 20
690.749248
 30
0.0
 10
196.067923
 20
695.349972
 30
0.0
 10
190.791680
 20
696.430673
 30
0.0
 10
189.552300
 20
691.829954
 30
0.0
  0
LWPOLYLINE
  5
110
100
AcDbEntity
  8
Layer_1
 62
7
100
AcDbPolyline
 90
5
 70
0
 10
178.681102
 20
713.474940
 30
0.0
 10
183.957342
 20
712.394239
 30
0.0
 10
182.717962
 20
707.793515
 30
0.0
 10
177.441721
 20
708.874216
 30
0.0
 10
178.681102
 20
713.474940
 30
0.0
  0
LWPOLYLINE
  5
111
100
AcDbEntity
  8
Layer_1
 62
7
100
AcDbPolyline
 90
5
 70
0
 10
174.644242
 20
719.156365
 30
0.0
 10
179.920482
 20
718.075664
 30
0.0
 10
178.681102
 20
713.474940
 30
0.0
 10
173.404861
 20
714.555641
 30
0.0
 10
174.644242
 20
719.156365
 30
0.0
  0
LWPOLYLINE
  5
112
100
AcDbEntity
  8
Layer_1
 62
7
100
AcDbPolyline
 90
5
 70
0
 10
182.717962
 20
707.793519
 30
0.0
 10
187.994202
 20
706.712818
 30
0.0
 10
186.754821
 20
702.112094
 30
0.0
 10
181.478581
 20
703.192795
 30
0.0
 10
182.717962
 20
707.793519
 30
0.0
  0
LWPOLYLINE
  5
113
100
AcDbEntity
  8
Layer_1
 62
7
100
AcDbPolyline
 90
5
 70
0
 10
202.902261
 20
679.386412
 30
0.0
 10
208.178503
 20
678.305710
 30
0.0
 10
206.939120
 20
673.704986
 30
0.0
 10
201.662878
 20
674.785688
 30
0.0
 10
202.902261
 20
679.386412
 30
0.0
  0
LWPOLYLINE
  5
114
100
AcDbEntity
  8
Layer_1
 62
7
100
AcDbPolyline
 90
5
 70
0
 10
197.626020
 20
680.467108
 30
0.0
 10
202.902261
 20
679.386402
 30
0.0
 10
204.141639
 20
683.987126
 30
0.0
 10
198.865398
 20
685.067827
 30
0.0
 10
197.626020
 20
680.467108
 30
0.0
  0
LWPOLYLINE
  5
115
100
AcDbEntity
  8
Layer_1
 62
7
100
AcDbPolyline
 90
5
 70
0
 10
194.828539
 20
690.749253
 30
0.0
 10
200.104781
 20
689.668551
 30
0.0
 10
198.865403
 20
685.067827
 30
0.0
 10
193.589161
 20
686.148529
 30
0.0
 10
194.828539
 20
690.749253
 30
0.0
  0
SPLINE
  5
116
100
AcDbEntity
  8
Layer_1
 62
7
100
AcDbSpline
 70
0
 71
3
 72
10
 73
6
 74
4
 40
0.000000
 40
0.000000
 40
0.000000
 40
0.000000
 40
3.605905
 40
6.187529
 40
7.845477
 40
7.845477
 40
7.845477
 40
7.845477
 10
215.417611
 20
629.706365
 30
0.0
 10
216.617679
 20
629.671534
 30
0.0
 10
218.676929
 20
629.611765
 30
0.0
 10
221.302946
 20
629.514661
 30
0.0
 10
222.698520
 20
629.755155
 30
0.0
 10
223.244280
 20
629.849204
 30
0.0
 11
215.417611
 21
629.706365
 31
0.0
 11
219.021832
 21
629.596160
 31
0.0
 11
221.603408
 21
629.611862
 31
0.0
 11
223.244280
 21
629.849204
 31
0.0
  0
LWPOLYLINE
  5
117
100
AcDbEntity
  8
Layer_1
 62
7
100
AcDbPolyline
 90
4
 70
0
 10
179.175124
 20
696.692920
 30
0.0
 10
348.877981
 20
702.125996
 30
0.0
 10
348.424904
 20
706.417619
 30
0.0
 10
176.149984
 20
705.062582
 30
0.0
  0
LWPOLYLINE
  5
118
100
AcDbEntity
  8
Layer_1
 62
7
100
AcDbPolyline
 90
2
 70
0
 10
179.175124
 20
696.692920
 30
0.0
 10
179.175124
 20
696.692920
 30
0.0
  0
LWPOLYLINE
  5
119
100
AcDbEntity
  8
Layer_1
 62
7
100
AcDbPolyline
 90
5
 70
0
 10
223.199527
 20
731.669492
 30
0.0
 10
228.475768
 20
730.588791
 30
0.0
 10
227.236385
 20
725.988072
 30
0.0
 10
221.960148
 20
727.068773
 30
0.0
 10
223.199527
 20
731.669492
 30
0.0
  0
LWPOLYLINE
  5
11a
100
AcDbEntity
  8
Layer_1
 62
7
100
AcDbPolyline
 90
5
 70
0
 10
227.236390
 20
725.988072
 30
0.0
 10
232.512631
 20
724.907370
 30
0.0
 10
231.273248
 20
720.306646
 30
0.0
 10
225.997012
 20
721.387348
 30
0.0
 10
227.236390
 20
725.988072
 30
0.0
  0
LWPOLYLINE
  5
11b
100
AcDbEntity
  8
Layer_1
 62
7
100
AcDbPolyline
 90
5
 70
0
 10
243.383829
 20
703.262385
 30
0.0
 10
248.660070
 20
702.181683
 30
0.0
 10
247.420687
 20
697.580959
 30
0.0
 10
242.144450
 20
698.661661
 30
0.0
 10
243.383829
 20
703.262385
 30
0.0
  0
LWPOLYLINE
  5
11c
100
AcDbEntity
  8
Layer_1
 62
7
100
AcDbPolyline
 90
5
 70
0
 10
246.181304
 20
692.980240
 30
0.0
 10
251.457546
 20
691.899534
 30
0.0
 10
252.696929
 20
696.500258
 30
0.0
 10
247.420687
 20
697.580959
 30
0.0
 10
246.181304
 20
692.980240
 30
0.0
  0
LWPOLYLINE
  5
11d
100
AcDbEntity
  8
Layer_1
 62
7
100
AcDbPolyline
 90
5
 70
0
 10
235.310107
 20
714.625226
 30
0.0
 10
240.586348
 20
713.544524
 30
0.0
 10
239.346965
 20
708.943800
 30
0.0
 10
234.070729
 20
710.024502
 30
0.0
 10
235.310107
 20
714.625226
 30
0.0
  0
LWPOLYLINE
  5
11e
100
AcDbEntity
  8
Layer_1
 62
7
100
AcDbPolyline
 90
5
 70
0
 10
231.273248
 20
720.306651
 30
0.0
 10
236.549490
 20
719.225950
 30
0.0
 10
235.310107
 20
714.625226
 30
0.0
 10
230.033870
 20
715.705927
 30
0.0
 10
231.273248
 20
720.306651
 30
0.0
  0
LWPOLYLINE
  5
11f
100
AcDbEntity
  8
Layer_1
 62
7
100
AcDbPolyline
 90
5
 70
0
 10
239.346965
 20
708.943805
 30
0.0
 10
244.623207
 20
707.863104
 30
0.0
 10
243.383824
 20
703.262380
 30
0.0
 10
238.107587
 20
704.343081
 30
0.0
 10
239.346965
 20
708.943805
 30
0.0
  0
LWPOLYLINE
  5
120
100
AcDbEntity
  8
Layer_1
 62
7
100
AcDbPolyline
 90
5
 70
0
 10
254.255021
 20
681.617394
 30
0.0
 10
259.531262
 20
680.536688
 30
0.0
 10
260.770646
 20
685.137412
 30
0.0
 10
255.494404
 20
686.218113
 30
0.0
 10
254.255021
 20
681.617394
 30
0.0
  0
LWPOLYLINE
  5
121
100
AcDbEntity
  8
Layer_1
 62
7
100
AcDbPolyline
 90
5
 70
0
 10
251.457546
 20
691.899539
 30
0.0
 10
256.733787
 20
690.818837
 30
0.0
 10
255.494404
 20
686.218113
 30
0.0
 10
250.218167
 20
687.298815
 30
0.0
 10
251.457546
 20
691.899539
 30
0.0
  0
LWPOLYLINE
  5
122
100
AcDbEntity
  8
Layer_1
 62
7
100
AcDbPolyline
 90
5
 70
0
 10
275.703211
 20
726.669785
 30
0.0
 10
280.979452
 20
725.589084
 30
0.0
 10
279.740069
 20
720.988359
 30
0.0
 10
274.463832
 20
722.069061
 30
0.0
 10
275.703211
 20
726.669785
 30
0.0
  0
LWPOLYLINE
  5
123
100
AcDbEntity
  8
Layer_1
 62
7
100
AcDbPolyline
 90
5
 70
0
 10
291.850649
 20
703.944098
 30
0.0
 10
297.126891
 20
702.863396
 30
0.0
 10
295.887508
 20
698.262672
 30
0.0
 10
290.611271
 20
699.343374
 30
0.0
 10
291.850649
 20
703.944098
 30
0.0
  0
LWPOLYLINE
  5
124
100
AcDbEntity
  8
Layer_1
 62
7
100
AcDbPolyline
 90
5
 70
0
 10
294.648125
 20
693.661953
 30
0.0
 10
299.924366
 20
692.581247
 30
0.0
 10
301.163749
 20
697.181971
 30
0.0
 10
295.887508
 20
698.262672
 30
0.0
 10
294.648125
 20
693.661953
 30
0.0
  0
LWPOLYLINE
  5
125
100
AcDbEntity
  8
Layer_1
 62
7
100
AcDbPolyline
 90
5
 70
0
 10
283.776927
 20
715.306939
 30
0.0
 10
289.053169
 20
714.226238
 30
0.0
 10
287.813786
 20
709.625513
 30
0.0
 10
282.537549
 20
710.706215
 30
0.0
 10
283.776927
 20
715.306939
 30
0.0
  0
LWPOLYLINE
  5
126
100
AcDbEntity
  8
Layer_1
 62
7
100
AcDbPolyline
 90
5
 70
0
 10
279.740069
 20
720.988364
 30
0.0
 10
285.016311
 20
719.907663
 30
0.0
 10
283.776927
 20
715.306939
 30
0.0
 10
278.500691
 20
716.387640
 30
0.0
 10
279.740069
 20
720.988364
 30
0.0
  0
LWPOLYLINE
  5
127
100
AcDbEntity
  8
Layer_1
 62
7
100
AcDbPolyline
 90
5
 70
0
 10
287.813786
 20
709.625518
 30
0.0
 10
293.090028
 20
708.544817
 30
0.0
 10
291.850644
 20
703.944093
 30
0.0
 10
286.574408
 20
705.024794
 30
0.0
 10
287.813786
 20
709.625518
 30
0.0
  0
LWPOLYLINE
  5
128
100
AcDbEntity
  8
Layer_1
 62
7
100
AcDbPolyline
 90
5
 70
0
 10
299.924366
 20
692.581252
 30
0.0
 10
305.200608
 20
691.500550
 30
0.0
 10
303.961225
 20
686.899826
 30
0.0
 10
298.684988
 20
687.980528
 30
0.0
 10
299.924366
 20
692.581252
 30
0.0
  0
LWPOLYLINE
  5
129
100
AcDbEntity
  8
Layer_1
 62
7
100
AcDbPolyline
 90
5
 70
0
 10
335.504785
 20
702.793807
 30
0.0
 10
340.781027
 20
701.713106
 30
0.0
 10
339.541644
 20
697.112382
 30
0.0
 10
334.265407
 20
698.193083
 30
0.0
 10
335.504785
 20
702.793807
 30
0.0
  0
LWPOLYLINE
  5
12a
100
AcDbEntity
  8
Layer_1
 62
7
100
AcDbPolyline
 90
5
 70
0
 10
338.302260
 20
692.511662
 30
0.0
 10
343.578502
 20
691.430956
 30
0.0
 10
344.817885
 20
696.031680
 30
0.0
 10
339.541644
 20
697.112382
 30
0.0
 10
338.302260
 20
692.511662
 30
0.0
  0
LWPOLYLINE
  5
12b
100
AcDbEntity
  8
Layer_1
 62
7
100
AcDbPolyline
 90
5
 70
0
 10
327.431063
 20
714.156653
 30
0.0
 10
332.707305
 20
713.075952
 30
0.0
 10
331.467922
 20
708.475228
 30
0.0
 10
326.191685
 20
709.555929
 30
0.0
 10
327.431063
 20
714.156653
 30
0.0
  0
LWPOLYLINE
  5
12c
100
AcDbEntity
  8
Layer_1
 62
7
100
AcDbPolyline
 90
5
 70
0
 10
323.394205
 20
719.838074
 30
0.0
 10
328.670446
 20
718.757372
 30
0.0
 10
327.431063
 20
714.156648
 30
0.0
 10
322.154827
 20
715.237350
 30
0.0
 10
323.394205
 20
719.838074
 30
0.0
  0
LWPOLYLINE
  5
12d
100
AcDbEntity
  8
Layer_1
 62
7
100
AcDbPolyline
 90
5
 70
0
 10
331.467922
 20
708.475228
 30
0.0
 10
336.744163
 20
707.394526
 30
0.0
 10
335.504780
 20
702.793802
 30
0.0
 10
330.228543
 20
703.874504
 30
0.0
 10
331.467922
 20
708.475228
 30
0.0
  0
SPLINE
  5
12e
100
AcDbEntity
  8
Layer_1
 62
7
100
AcDbSpline
 70
0
 71
3
 72
10
 73
6
 74
4
 40
0.000000
 40
0.000000
 40
0.000000
 40
0.000000
 40
3.803555
 40
6.963812
 40
9.148078
 40
9.148078
 40
9.148078
 40
9.148078
 10
176.149984
 20
705.062582
 30
0.0
 10
176.134910
 20
703.771702
 30
0.0
 10
176.107312
 20
701.408270
 30
0.0
 10
177.633039
 20
698.663278
 30
0.0
 10
178.727731
 20
697.264564
 30
0.0
 10
179.175124
 20
696.692920
 30
0.0
 11
176.149984
 21
705.062582
 31
0.0
 11
176.459476
 21
701.271640
 31
0.0
 11
177.866908
 21
698.442088
 31
0.0
 11
179.175124
 21
696.692920
 31
0.0
  0
LWPOLYLINE
  5
12f
100
AcDbEntity
  8
Layer_1
 62
7
100
AcDbPolyline
 90
4
 70
0
 10
179.175124
 20
696.692920
 30
0.0
 10
348.877981
 20
702.125996
 30
0.0
 10
348.424904
 20
706.417619
 30
0.0
 10
176.149984
 20
705.062582
 30
0.0
  0
LWPOLYLINE
  5
130
100
AcDbEntity
  8
Layer_1
 62
7
100
AcDbPolyline
 90
2
 70
0
 10
179.175124
 20
696.692920
 30
0.0
 10
179.175124
 20
696.692920
 30
0.0
  0
LWPOLYLINE
  5
131
100
AcDbEntity
  8
Layer_1
 62
7
100
AcDbPolyline
 90
5
 70
0
 10
295.290519
 20
665.575738
 30
0.0
 10
306.741410
 20
665.575738
 30
0.0
 10
306.741410
 20
657.549636
 30
0.0
 10
295.290519
 20
657.549636
 30
0.0
 10
295.290519
 20
665.575738
 30
0.0
  0
SPLINE
  5
132
100
AcDbEntity
  8
Layer_1
 62
7
100
AcDbSpline
 70
0
 71
3
 72
10
 73
6
 74
4
 40
0.000000
 40
0.000000
 40
0.000000
 40
0.000000
 40
3.803555
 40
6.963812
 40
9.148078
 40
9.148078
 40
9.148078
 40
9.148078
 10
176.149984
 20
705.062582
 30
0.0
 10
176.134910
 20
703.771702
 30
0.0
 10
176.107312
 20
701.408270
 30
0.0
 10
177.633039
 20
698.663278
 30
0.0
 10
178.727731
 20
697.264564
 30
0.0
 10
179.175124
 20
696.692920
 30
0.0
 11
176.149984
 21
705.062582
 31
0.0
 11
176.459476
 21
701.271640
 31
0.0
 11
177.866908
 21
698.442088
 31
0.0
 11
179.175124
 21
696.692920
 31
0.0
  0
LWPOLYLINE
  5
133
100
AcDbEntity
  8
Layer_1
 62
7
100
AcDbPolyline
 90
4
 70
0
 10
223.244280
 20
627.419686
 30
0.0
 10
223.671862
 20
707.987420
 30
0.0
 10
216.702367
 20
707.224570
 30
0.0
 10
215.417611
 20
627.276846
 30
0.0
  0
LWPOLYLINE
  5
134
100
AcDbEntity
  8
Layer_1
 62
7
100
AcDbPolyline
 90
2
 70
0
 10
223.244280
 20
627.419686
 30
0.0
 10
223.244280
 20
627.419686
 30
0.0
  0
LWPOLYLINE
  5
135
100
AcDbEntity
  8
Layer_1
 62
7
100
AcDbPolyline
 90
5
 70
0
 10
232.059584
 20
627.410214
 30
0.0
 10
238.551914
 20
627.410214
 30
0.0
 10
238.551914
 20
630.865259
 30
0.0
 10
232.059584
 20
630.865259
 30
0.0
 10
232.059584
 20
627.410214
 30
0.0
  0
LWPOLYLINE
  5
136
100
AcDbEntity
  8
Layer_1
 62
7
100
AcDbPolyline
 90
14
 70
0
 10
244.522723
 20
677.616471
 30
0.0
 10
244.522723
 20
675.941467
 30
0.0
 10
241.097720
 20
675.941467
 30
0.0
 10
241.097720
 20
627.416468
 30
0.0
 10
247.597722
 20
627.416468
 30
0.0
 10
247.597722
 20
647.491468
 30
0.0
 10
267.072721
 20
647.491468
 30
0.0
 10
267.072721
 20
627.416468
 30
0.0
 10
273.547721
 20
627.416468
 30
0.0
 10
273.547721
 20
675.941467
 30
0.0
 10
269.647721
 20
675.941467
 30
0.0
 10
269.647721
 20
677.616471
 30
0.0
 10
244.522723
 20
677.616471
 30
0.0
 10
244.522723
 20
677.616471
 30
0.0
  0
LWPOLYLINE
  5
137
100
AcDbEntity
  8
Layer_1
 62
7
100
AcDbPolyline
 90
6
 70
0
 10
247.597722
 20
667.591469
 30
0.0
 10
267.072721
 20
667.591469
 30
0.0
 10
267.072721
 20
657.541466
 30
0.0
 10
247.597722
 20
657.541466
 30
0.0
 10
247.597722
 20
667.591469
 30
0.0
 10
247.597722
 20
667.591469
 30
0.0
  0
LWPOLYLINE
  5
138
100
AcDbEntity
  8
Layer_1
 62
7
100
AcDbPolyline
 90
5
 70
0
 10
276.119859
 20
627.410214
 30
0.0
 10
282.612281
 20
627.410214
 30
0.0
 10
282.612281
 20
630.865259
 30
0.0
 10
276.119859
 20
630.865259
 30
0.0
 10
276.119859
 20
627.410214
 30
0.0
  0
LWPOLYLINE
  5
139
100
AcDbEntity
  8
Layer_1
 62
7
100
AcDbPolyline
 90
9
 70
0
 10
311.120882
 20
627.410214
 30
0.0
 10
317.613216
 20
627.410214
 30
0.0
 10
317.613216
 20
677.628955
 30
0.0
 10
311.120882
 20
677.628955
 30
0.0
 10
311.120882
 20
667.584630
 30
0.0
 10
304.628553
 20
667.584630
 30
0.0
 10
304.628553
 20
657.540165
 30
0.0
 10
311.120882
 20
657.540165
 30
0.0
 10
311.120882
 20
627.410214
 30
0.0
  0
LWPOLYLINE
  5
13a
100
AcDbEntity
  8
Layer_1
 62
7
100
AcDbPolyline
 90
13
 70
0
 10
291.645844
 20
657.540165
 30
0.0
 10
298.138174
 20
657.540165
 30
0.0
 10
298.138174
 20
654.559040
 30
0.0
 10
304.628553
 20
654.559040
 30
0.0
 10
304.628553
 20
657.540165
 30
0.0
 10
298.138174
 20
657.540165
 30
0.0
 10
298.138174
 20
667.584630
 30
0.0
 10
291.645844
 20
667.584630
 30
0.0
 10
291.645844
 20
677.628955
 30
0.0
 10
285.153422
 20
677.628955
 30
0.0
 10
285.153422
 20
627.410214
 30
0.0
 10
291.645844
 20
627.410214
 30
0.0
 10
291.645844
 20
657.540165
 30
0.0
  0
LWPOLYLINE
  5
13b
100
AcDbEntity
  8
Layer_1
 62
7
100
AcDbPolyline
 90
5
 70
0
 10
320.180227
 20
627.410214
 30
0.0
 10
326.672556
 20
627.410214
 30
0.0
 10
326.672556
 20
631.335884
 30
0.0
 10
320.180227
 20
631.335884
 30
0.0
 10
320.180227
 20
627.410214
 30
0.0
  0
LWPOLYLINE
  5
13c
100
AcDbEntity
  8
Layer_1
 62
7
100
AcDbPolyline
 90
13
 70
0
 10
330.188694
 20
672.291274
 30
0.0
 10
337.324008
 20
672.291274
 30
0.0
 10
337.324008
 20
631.335884
 30
0.0
 10
330.188694
 20
631.335884
 30
0.0
 10
330.188694
 20
627.410214
 30
0.0
 10
350.949609
 20
627.410214
 30
0.0
 10
350.949609
 20
631.335884
 30
0.0
 10
343.814387
 20
631.335884
 30
0.0
 10
343.814387
 20
672.291274
 30
0.0
 10
350.949609
 20
672.291274
 30
0.0
 10
350.949609
 20
677.628955
 30
0.0
 10
330.188694
 20
677.628955
 30
0.0
 10
330.188694
 20
672.291274
 30
0.0
  0
LWPOLYLINE
  5
13d
100
AcDbEntity
  8
Layer_1
 62
7
100
AcDbPolyline
 90
5
 70
0
 10
162.533662
 20
736.200627
 30
0.0
 10
167.809903
 20
735.119926
 30
0.0
 10
166.570522
 20
730.519207
 30
0.0
 10
161.294282
 20
731.599908
 30
0.0
 10
162.533662
 20
736.200627
 30
0.0
  0
LWPOLYLINE
  5
13e
100
AcDbEntity
  8
Layer_1
 62
7
100
AcDbPolyline
 90
5
 70
0
 10
166.570522
 20
730.519207
 30
0.0
 10
171.846762
 20
729.438505
 30
0.0
 10
170.607382
 20
724.837781
 30
0.0
 10
165.331142
 20
725.918482
 30
0.0
 10
166.570522
 20
730.519207
 30
0.0
  0
LWPOLYLINE
  5
13f
100
AcDbEntity
  8
Layer_1
 62
7
100
AcDbPolyline
 90
5
 70
0
 10
170.607382
 20
724.837786
 30
0.0
 10
175.883622
 20
723.757085
 30
0.0
 10
174.644242
 20
719.156361
 30
0.0
 10
169.368002
 20
720.237062
 30
0.0
 10
170.607382
 20
724.837786
 30
0.0
  0
LWPOLYLINE
  5
140
100
AcDbEntity
  8
Layer_1
 62
7
100
AcDbPolyline
 90
5
 70
0
 10
186.754821
 20
702.112099
 30
0.0
 10
192.031061
 20
701.031397
 30
0.0
 10
190.791681
 20
696.430673
 30
0.0
 10
185.515441
 20
697.511375
 30
0.0
 10
186.754821
 20
702.112099
 30
0.0
  0
LWPOLYLINE
  5
141
100
AcDbEntity
  8
Layer_1
 62
7
100
AcDbPolyline
 90
5
 70
0
 10
189.552300
 20
691.829954
 30
0.0
 10
194.828539
 20
690.749248
 30
0.0
 10
196.067923
 20
695.349972
 30
0.0
 10
190.791680
 20
696.430673
 30
0.0
 10
189.552300
 20
691.829954
 30
0.0
  0
LWPOLYLINE
  5
142
100
AcDbEntity
  8
Layer_1
 62
7
100
AcDbPolyline
 90
5
 70
0
 10
178.681102
 20
713.474940
 30
0.0
 10
183.957342
 20
712.394239
 30
0.0
 10
182.717962
 20
707.793515
 30
0.0
 10
177.441721
 20
708.874216
 30
0.0
 10
178.681102
 20
713.474940
 30
0.0
  0
LWPOLYLINE
  5
143
100
AcDbEntity
  8
Layer_1
 62
7
100
AcDbPolyline
 90
5
 70
0
 10
174.644242
 20
719.156365
 30
0.0
 10
179.920482
 20
718.075664
 30
0.0
 10
178.681102
 20
713.474940
 30
0.0
 10
173.404861
 20
714.555641
 30
0.0
 10
174.644242
 20
719.156365
 30
0.0
  0
LWPOLYLINE
  5
144
100
AcDbEntity
  8
Layer_1
 62
7
100
AcDbPolyline
 90
5
 70
0
 10
182.717962
 20
707.793519
 30
0.0
 10
187.994202
 20
706.712818
 30
0.0
 10
186.754821
 20
702.112094
 30
0.0
 10
181.478581
 20
703.192795
 30
0.0
 10
182.717962
 20
707.793519
 30
0.0
  0
LWPOLYLINE
  5
145
100
AcDbEntity
  8
Layer_1
 62
7
100
AcDbPolyline
 90
5
 70
0
 10
202.902261
 20
679.386412
 30
0.0
 10
208.178503
 20
678.305710
 30
0.0
 10
206.939120
 20
673.704986
 30
0.0
 10
201.662878
 20
674.785688
 30
0.0
 10
202.902261
 20
679.386412
 30
0.0
  0
LWPOLYLINE
  5
146
100
AcDbEntity
  8
Layer_1
 62
7
100
AcDbPolyline
 90
5
 70
0
 10
197.626020
 20
680.467108
 30
0.0
 10
202.902261
 20
679.386402
 30
0.0
 10
204.141639
 20
683.987126
 30
0.0
 10
198.865398
 20
685.067827
 30
0.0
 10
197.626020
 20
680.467108
 30
0.0
  0
LWPOLYLINE
  5
147
100
AcDbEntity
  8
Layer_1
 62
7
100
AcDbPolyline
 90
5
 70
0
 10
194.828539
 20
690.749253
 30
0.0
 10
200.104781
 20
689.668551
 30
0.0
 10
198.865403
 20
685.067827
 30
0.0
 10
193.589161
 20
686.148529
 30
0.0
 10
194.828539
 20
690.749253
 30
0.0
  0
LWPOLYLINE
  5
148
100
AcDbEntity
  8
Layer_1
 62
7
100
AcDbPolyline
 90
5
 70
0
 10
223.199527
 20
731.669492
 30
0.0
 10
228.475768
 20
730.588791
 30
0.0
 10
227.236385
 20
725.988072
 30
0.0
 10
221.960148
 20
727.068773
 30
0.0
 10
223.199527
 20
731.669492
 30
0.0
  0
LWPOLYLINE
  5
149
100
AcDbEntity
  8
Layer_1
 62
7
100
AcDbPolyline
 90
5
 70
0
 10
227.236390
 20
725.988072
 30
0.0
 10
232.512631
 20
724.907370
 30
0.0
 10
231.273248
 20
720.306646
 30
0.0
 10
225.997012
 20
721.387348
 30
0.0
 10
227.236390
 20
725.988072
 30
0.0
  0
LWPOLYLINE
  5
14a
100
AcDbEntity
  8
Layer_1
 62
7
100
AcDbPolyline
 90
5
 70
0
 10
243.383829
 20
703.262385
 30
0.0
 10
248.660070
 20
702.181683
 30
0.0
 10
247.420687
 20
697.580959
 30
0.0
 10
242.144450
 20
698.661661
 30
0.0
 10
243.383829
 20
703.262385
 30
0.0
  0
LWPOLYLINE
  5
14b
100
AcDbEntity
  8
Layer_1
 62
7
100
AcDbPolyline
 90
5
 70
0
 10
246.181304
 20
692.980240
 30
0.0
 10
251.457546
 20
691.899534
 30
0.0
 10
252.696929
 20
696.500258
 30
0.0
 10
247.420687
 20
697.580959
 30
0.0
 10
246.181304
 20
692.980240
 30
0.0
  0
LWPOLYLINE
  5
14c
100
AcDbEntity
  8
Layer_1
 62
7
100
AcDbPolyline
 90
5
 70
0
 10
235.310107
 20
714.625226
 30
0.0
 10
240.586348
 20
713.544524
 30
0.0
 10
239.346965
 20
708.943800
 30
0.0
 10
234.070729
 20
710.024502
 30
0.0
 10
235.310107
 20
714.625226
 30
0.0
  0
LWPOLYLINE
  5
14d
100
AcDbEntity
  8
Layer_1
 62
7
100
AcDbPolyline
 90
5
 70
0
 10
231.273248
 20
720.306651
 30
0.0
 10
236.549490
 20
719.225950
 30
0.0
 10
235.310107
 20
714.625226
 30
0.0
 10
230.033870
 20
715.705927
 30
0.0
 10
231.273248
 20
720.306651
 30
0.0
  0
LWPOLYLINE
  5
14e
100
AcDbEntity
  8
Layer_1
 62
7
100
AcDbPolyline
 90
5
 70
0
 10
239.346965
 20
708.943805
 30
0.0
 10
244.623207
 20
707.863104
 30
0.0
 10
243.383824
 20
703.262380
 30
0.0
 10
238.107587
 20
704.343081
 30
0.0
 10
239.346965
 20
708.943805
 30
0.0
  0
LWPOLYLINE
  5
14f
100
AcDbEntity
  8
Layer_1
 62
7
100
AcDbPolyline
 90
5
 70
0
 10
254.255021
 20
681.617394
 30
0.0
 10
259.531262
 20
680.536688
 30
0.0
 10
260.770646
 20
685.137412
 30
0.0
 10
255.494404
 20
686.218113
 30
0.0
 10
254.255021
 20
681.617394
 30
0.0
  0
LWPOLYLINE
  5
150
100
AcDbEntity
  8
Layer_1
 62
7
100
AcDbPolyline
 90
5
 70
0
 10
251.457546
 20
691.899539
 30
0.0
 10
256.733787
 20
690.818837
 30
0.0
 10
255.494404
 20
686.218113
 30
0.0
 10
250.218167
 20
687.298815
 30
0.0
 10
251.457546
 20
691.899539
 30
0.0
  0
LWPOLYLINE
  5
151
100
AcDbEntity
  8
Layer_1
 62
7
100
AcDbPolyline
 90
5
 70
0
 10
275.703211
 20
726.669785
 30
0.0
 10
280.979452
 20
725.589084
 30
0.0
 10
279.740069
 20
720.988359
 30
0.0
 10
274.463832
 20
722.069061
 30
0.0
 10
275.703211
 20
726.669785
 30
0.0
  0
LWPOLYLINE
  5
152
100
AcDbEntity
  8
Layer_1
 62
7
100
AcDbPolyline
 90
5
 70
0
 10
291.850649
 20
703.944098
 30
0.0
 10
297.126891
 20
702.863396
 30
0.0
 10
295.887508
 20
698.262672
 30
0.0
 10
290.611271
 20
699.343374
 30
0.0
 10
291.850649
 20
703.944098
 30
0.0
  0
LWPOLYLINE
  5
153
100
AcDbEntity
  8
Layer_1
 62
7
100
AcDbPolyline
 90
5
 70
0
 10
294.648125
 20
693.661953
 30
0.0
 10
299.924366
 20
692.581247
 30
0.0
 10
301.163749
 20
697.181971
 30
0.0
 10
295.887508
 20
698.262672
 30
0.0
 10
294.648125
 20
693.661953
 30
0.0
  0
LWPOLYLINE
  5
154
100
AcDbEntity
  8
Layer_1
 62
7
100
AcDbPolyline
 90
5
 70
0
 10
283.776927
 20
715.306939
 30
0.0
 10
289.053169
 20
714.226238
 30
0.0
 10
287.813786
 20
709.625513
 30
0.0
 10
282.537549
 20
710.706215
 30
0.0
 10
283.776927
 20
715.306939
 30
0.0
  0
LWPOLYLINE
  5
155
100
AcDbEntity
  8
Layer_1
 62
7
100
AcDbPolyline
 90
5
 70
0
 10
279.740069
 20
720.988364
 30
0.0
 10
285.016311
 20
719.907663
 30
0.0
 10
283.776927
 20
715.306939
 30
0.0
 10
278.500691
 20
716.387640
 30
0.0
 10
279.740069
 20
720.988364
 30
0.0
  0
LWPOLYLINE
  5
156
100
AcDbEntity
  8
Layer_1
 62
7
100
AcDbPolyline
 90
5
 70
0
 10
287.813786
 20
709.625518
 30
0.0
 10
293.090028
 20
708.544817
 30
0.0
 10
291.850644
 20
703.944093
 30
0.0
 10
286.574408
 20
705.024794
 30
0.0
 10
287.813786
 20
709.625518
 30
0.0
  0
LWPOLYLINE
  5
157
100
AcDbEntity
  8
Layer_1
 62
7
100
AcDbPolyline
 90
5
 70
0
 10
299.924366
 20
692.581252
 30
0.0
 10
305.200608
 20
691.500550
 30
0.0
 10
303.961225
 20
686.899826
 30
0.0
 10
298.684988
 20
687.980528
 30
0.0
 10
299.924366
 20
692.581252
 30
0.0
  0
LWPOLYLINE
  5
158
100
AcDbEntity
  8
Layer_1
 62
7
100
AcDbPolyline
 90
5
 70
0
 10
335.504785
 20
702.793807
 30
0.0
 10
340.781027
 20
701.713106
 30
0.0
 10
339.541644
 20
697.112382
 30
0.0
 10
334.265407
 20
698.193083
 30
0.0
 10
335.504785
 20
702.793807
 30
0.0
  0
LWPOLYLINE
  5
159
100
AcDbEntity
  8
Layer_1
 62
7
100
AcDbPolyline
 90
5
 70
0
 10
338.302260
 20
692.511662
 30
0.0
 10
343.578502
 20
691.430956
 30
0.0
 10
344.817885
 20
696.031680
 30
0.0
 10
339.541644
 20
697.112382
 30
0.0
 10
338.302260
 20
692.511662
 30
0.0
  0
LWPOLYLINE
  5
15a
100
AcDbEntity
  8
Layer_1
 62
7
100
AcDbPolyline
 90
5
 70
0
 10
327.431063
 20
714.156653
 30
0.0
 10
332.707305
 20
713.075952
 30
0.0
 10
331.467922
 20
708.475228
 30
0.0
 10
326.191685
 20
709.555929
 30
0.0
 10
327.431063
 20
714.156653
 30
0.0
  0
LWPOLYLINE
  5
15b
100
AcDbEntity
  8
Layer_1
 62
7
100
AcDbPolyline
 90
5
 70
0
 10
323.394205
 20
719.838074
 30
0.0
 10
328.670446
 20
718.757372
 30
0.0
 10
327.431063
 20
714.156648
 30
0.0
 10
322.154827
 20
715.237350
 30
0.0
 10
323.394205
 20
719.838074
 30
0.0
  0
SPLINE
  5
15c
100
AcDbEntity
  8
Layer_1
 62
7
100
AcDbSpline
 70
0
 71
3
 72
10
 73
6
 74
4
 40
0.000000
 40
0.000000
 40
0.000000
 40
0.000000
 40
3.605905
 40
6.187529
 40
7.845477
 40
7.845477
 40
7.845477
 40
7.845477
 10
215.417611
 20
627.276846
 30
0.0
 10
216.617679
 20
627.242015
 30
0.0
 10
218.676929
 20
627.182247
 30
0.0
 10
221.302946
 20
627.085143
 30
0.0
 10
222.698520
 20
627.325637
 30
0.0
 10
223.244280
 20
627.419686
 30
0.0
 11
215.417611
 21
627.276846
 31
0.0
 11
219.021832
 21
627.166642
 31
0.0
 11
221.603408
 21
627.182343
 31
0.0
 11
223.244280
 21
627.419686
 31
0.0
  0
LWPOLYLINE
  5
15d
100
AcDbEntity
  8
Layer_1
 62
7
100
AcDbPolyline
 90
5
 70
0
 10
331.467922
 20
708.475228
 30
0.0
 10
336.744163
 20
707.394526
 30
0.0
 10
335.504780
 20
702.793802
 30
0.0
 10
330.228543
 20
703.874504
 30
0.0
 10
331.467922
 20
708.475228
 30
0.0
  0
ENDSEC
  0
SECTION
  2
OBJECTS
  0
DICTIONARY
  5
C
330
0
100
AcDbDictionary
  3
ACAD_GROUP
350
D
  3
ACAD_MLINESTYLE
350
17
  0
DICTIONARY
  5
D
330
C
100
AcDbDictionary
  0
DICTIONARY
  5
1A
330
C
100
AcDbDictionary
  0
DICTIONARY
  5
17
330
C
100
AcDbDictionary
  3
STANDARD
350
18
  0
DICTIONARY
  5
19
330
C
100
AcDbDictionary
  0
ENDSEC
  0
EOF
