<?xml version="1.0" encoding="UTF-8" standalone="no"?>
<!-- Created with Inkscape (http://www.inkscape.org/) -->

<svg
   xmlns:dc="http://purl.org/dc/elements/1.1/"
   xmlns:cc="http://creativecommons.org/ns#"
   xmlns:rdf="http://www.w3.org/1999/02/22-rdf-syntax-ns#"
   xmlns:svg="http://www.w3.org/2000/svg"
   xmlns="http://www.w3.org/2000/svg"
   xmlns:sodipodi="http://sodipodi.sourceforge.net/DTD/sodipodi-0.dtd"
   xmlns:inkscape="http://www.inkscape.org/namespaces/inkscape"
   sodipodi:docname="tami.svg"
   inkscape:version="0.48.4 r9939"
   version="1.1"
   id="svg2"
   height="194.8819"
   width="301.18109">
  <defs
     id="defs4" />
  <sodipodi:namedview
     id="base"
     pagecolor="#ffffff"
     bordercolor="#666666"
     borderopacity="1.0"
     inkscape:pageopacity="0.0"
     inkscape:pageshadow="2"
     inkscape:zoom="2.0386406"
     inkscape:cx="192.77552"
     inkscape:cy="97.440948"
     inkscape:document-units="px"
     inkscape:current-layer="layer1"
     showgrid="false"
     units="mm"
     showguides="true"
     inkscape:guide-bbox="true"
     inkscape:window-width="1024"
     inkscape:window-height="721"
     inkscape:window-x="-4"
     inkscape:window-y="-4"
     inkscape:window-maximized="1">
    <sodipodi:guide
       orientation="-0.70710678,0.70710678"
       position="-404.28571,1004.2857"
       id="guide3699" />
    <sodipodi:guide
       orientation="1,0"
       position="148.57143,600"
       id="guide3701" />
    <sodipodi:guide
       orientation="1,0"
       position="525.71429,747.14286"
       id="guide3703" />
    <sodipodi:guide
       orientation="0,1"
       position="323.21429,436.3859"
       id="guide3705" />
  </sodipodi:namedview>
  <metadata
     id="metadata7">
    <rdf:RDF>
      <cc:Work
         rdf:about="">
        <dc:format>image/svg+xml</dc:format>
        <dc:type
           rdf:resource="http://purl.org/dc/dcmitype/StillImage" />
        <dc:title></dc:title>
      </cc:Work>
    </rdf:RDF>
  </metadata>
  <g
     inkscape:label="Ebene 1"
     inkscape:groupmode="layer"
     id="layer1"
     transform="translate(0,-857.48021)">
    <text
       xml:space="preserve"
       style="font-size:181.93661499px;font-style:normal;font-weight:normal;line-height:125%;letter-spacing:0px;word-spacing:0px;fill:#000000;fill-opacity:1;stroke:none;font-family:Sans"
       x="156.49879"
       y="655.75067"
       id="text3096"
       sodipodi:linespacing="125%"
       transform="scale(1.0222976,0.97818874)"><tspan
         sodipodi:role="line"
         id="tspan3098"
         x="156.49879"
         y="655.75067"
         style="font-size:31.83890915px;font-style:normal;font-variant:normal;font-weight:normal;font-stretch:normal;font-family:Visitor TT1 BRK;-inkscape-font-specification:Visitor TT1 BRK" /></text>
    <g
       id="g3044"
       transform="matrix(0.65626262,0,0,0.65626262,-59.024416,611.48575)">
      <path
         sodipodi:nodetypes="ccccc"
         inkscape:connector-curvature="0"
         id="rect4090-3"
         d="m 240.0528,616.74419 0.87717,-164.92477 -14.29767,1.61013 -2.63563,163.61613 c 8.49892,0.29812 13.59882,0.50072 16.05613,-0.30149 z"
         style="fill:#000000;fill-opacity:1;stroke:none" />
      <path
         d="m 258.13706,617.12061 13.31878,0 0,-7.0879 -13.31878,0 z"
         style="font-size:7px;font-style:normal;font-variant:normal;font-weight:normal;font-stretch:normal;line-height:125%;letter-spacing:0px;word-spacing:0px;fill:#000000;fill-opacity:1;stroke:none;font-family:Visitor TT1 BRK;-inkscape-font-specification:Visitor TT1 BRK"
         id="path3082"
         inkscape:connector-curvature="0"
         sodipodi:nodetypes="ccccc" />
      <path
         d="m 329.94021,617.12061 13.31897,0 0,-103.02194 -66.5901,0 0,103.02194 13.31879,0 0,-41.21142 39.95234,0 z m -39.95234,-82.41637 39.95234,0 0,20.60586 -39.95234,0 z"
         style="font-size:7px;font-style:normal;font-variant:normal;font-weight:normal;font-stretch:normal;line-height:125%;letter-spacing:0px;word-spacing:0px;fill:#000000;fill-opacity:1;stroke:none;font-family:Visitor TT1 BRK;-inkscape-font-specification:Visitor TT1 BRK"
         id="path3084"
         inkscape:connector-curvature="0" />
      <path
         d="m 348.52513,617.12061 13.31897,0 0,-7.0879 -13.31897,0 z"
         style="font-size:7px;font-style:normal;font-variant:normal;font-weight:normal;font-stretch:normal;line-height:125%;letter-spacing:0px;word-spacing:0px;fill:#000000;fill-opacity:1;stroke:none;font-family:Visitor TT1 BRK;-inkscape-font-specification:Visitor TT1 BRK"
         id="path3086"
         inkscape:connector-curvature="0"
         sodipodi:nodetypes="ccccc" />
      <path
         d="m 380.37613,555.3101 13.31878,0 0,6.11567 13.31478,0 0,-6.11567 -13.31478,0 0,-20.60586 -13.31878,0 0,-20.60557 -13.31897,0 0,103.02194 13.31897,0 z m 39.95234,61.81051 13.31879,0 0,-103.02194 -13.31879,0 0,20.60557 -13.31878,0 0,20.60586 13.31878,0 z"
         style="font-size:7px;font-style:normal;font-variant:normal;font-weight:normal;font-stretch:normal;line-height:125%;letter-spacing:0px;word-spacing:0px;fill:#000000;fill-opacity:1;stroke:none;font-family:Visitor TT1 BRK;-inkscape-font-specification:Visitor TT1 BRK"
         id="path3088"
         inkscape:connector-curvature="0"
         sodipodi:nodetypes="cccccccccccccccccccccc" />
      <path
         d="m 438.91339,617.12061 13.31878,0 0,-8.05337 -13.31878,0 z"
         style="font-size:7px;font-style:normal;font-variant:normal;font-weight:normal;font-stretch:normal;line-height:125%;letter-spacing:0px;word-spacing:0px;fill:#000000;fill-opacity:1;stroke:none;font-family:Visitor TT1 BRK;-inkscape-font-specification:Visitor TT1 BRK"
         id="path3090"
         inkscape:connector-curvature="0"
         sodipodi:nodetypes="ccccc" />
      <path
         d="m 459.4454,525.04873 14.63784,0 0,84.01851 -14.63784,0 0,8.05337 42.59027,0 0,-8.05337 -14.63765,0 0,-84.01851 14.63765,0 0,-10.95006 -42.59027,0 z"
         style="font-size:7px;font-style:normal;font-variant:normal;font-weight:normal;font-stretch:normal;line-height:125%;letter-spacing:0px;word-spacing:0px;fill:#000000;fill-opacity:1;stroke:none;font-family:Visitor TT1 BRK;-inkscape-font-specification:Visitor TT1 BRK"
         id="path3092"
         inkscape:connector-curvature="0"
         sodipodi:nodetypes="ccccccccccccc" />
      <rect
         id="rect3094"
         width="23.490953"
         height="16.465137"
         x="387.85312"
         y="538.82544"
         style="font-size:40px;font-style:normal;font-weight:normal;line-height:125%;letter-spacing:0px;word-spacing:0px;fill:#000000;fill-opacity:1;stroke:none;font-family:Sans" />
      <rect
         id="rect3113"
         width="17.740524"
         height="7.7860408"
         x="265.95435"
         y="509.77148"
         style="font-size:40px;font-style:normal;font-weight:normal;line-height:125%;letter-spacing:0px;word-spacing:0px;fill:#ffffff;fill-opacity:1;stroke:none;font-family:Sans" />
      <rect
         id="rect3113-1"
         width="17.740524"
         height="7.7860408"
         x="335.27164"
         y="509.77148"
         style="font-size:40px;font-style:normal;font-weight:normal;line-height:125%;letter-spacing:0px;word-spacing:0px;fill:#ffffff;fill-opacity:1;stroke:none;font-family:Sans" />
      <rect
         transform="matrix(0.97966128,0.20065836,-0.26011533,0.96557755,0,0)"
         y="363.42972"
         x="214.40146"
         height="9.7746801"
         width="11.048734"
         id="rect2987-74"
         style="fill:#000000;fill-opacity:1;fill-rule:evenodd;stroke:none" />
      <rect
         transform="matrix(0.97966128,0.20065836,-0.26011533,0.96557755,0,0)"
         y="373.20441"
         x="225.45018"
         height="9.7746801"
         width="11.048734"
         id="rect2987-7-9"
         style="fill:#000000;fill-opacity:1;fill-rule:evenodd;stroke:none" />
      <rect
         transform="matrix(0.97966128,0.20065836,-0.26011533,0.96557755,0,0)"
         y="382.9791"
         x="236.49892"
         height="9.7746801"
         width="11.048734"
         id="rect2987-7-0-1"
         style="fill:#000000;fill-opacity:1;fill-rule:evenodd;stroke:none" />
      <rect
         transform="matrix(0.97966128,0.20065836,-0.26011533,0.96557755,0,0)"
         y="422.07782"
         x="280.69385"
         height="9.7746801"
         width="11.048734"
         id="rect2987-7-4-8"
         style="fill:#000000;fill-opacity:1;fill-rule:evenodd;stroke:none" />
      <rect
         transform="matrix(0.97966128,0.20065836,0.26011533,-0.96557755,0,0)"
         y="-441.6272"
         x="291.74258"
         height="9.7746801"
         width="11.048734"
         id="rect2987-7-8-5"
         style="fill:#000000;fill-opacity:1;fill-rule:evenodd;stroke:none" />
      <rect
         transform="matrix(0.97966128,0.20065836,-0.26011533,0.96557755,0,0)"
         y="402.52844"
         x="258.59637"
         height="9.7746801"
         width="11.048734"
         id="rect2987-7-45-8"
         style="fill:#000000;fill-opacity:1;fill-rule:evenodd;stroke:none" />
      <rect
         transform="matrix(0.97966128,0.20065836,-0.26011533,0.96557755,0,0)"
         y="392.75378"
         x="247.54765"
         height="9.7746801"
         width="11.048734"
         id="rect2987-7-1-2"
         style="fill:#000000;fill-opacity:1;fill-rule:evenodd;stroke:none" />
      <rect
         transform="matrix(0.97966128,0.20065836,-0.26011533,0.96557755,0,0)"
         y="412.30313"
         x="269.64511"
         height="9.7746801"
         width="11.048734"
         id="rect2987-7-11-8"
         style="fill:#000000;fill-opacity:1;fill-rule:evenodd;stroke:none" />
      <rect
         transform="matrix(0.97966128,0.20065836,-0.26011533,0.96557755,0,0)"
         y="461.17654"
         x="324.88879"
         height="9.7746801"
         width="11.048734"
         id="rect2987-7-4-2-5"
         style="fill:#000000;fill-opacity:1;fill-rule:evenodd;stroke:none" />
      <rect
         transform="matrix(0.97966128,0.20065836,0.26011533,-0.96557755,0,0)"
         y="-461.17654"
         x="313.84006"
         height="9.7746801"
         width="11.048734"
         id="rect2987-7-8-6-0"
         style="fill:#000000;fill-opacity:1;fill-rule:evenodd;stroke:none" />
      <rect
         transform="matrix(0.97966128,0.20065836,-0.26011533,0.96557755,0,0)"
         y="441.62717"
         x="302.79132"
         height="9.7746801"
         width="11.048734"
         id="rect2987-7-11-4-1"
         style="fill:#000000;fill-opacity:1;fill-rule:evenodd;stroke:none" />
      <path
         sodipodi:nodetypes="ccccc"
         inkscape:connector-curvature="0"
         id="rect4090-2"
         d="m 149.64652,474.98968 348.1393,-11.14576 -0.92947,-8.80411 -353.4158,2.77981 c -1.30992,8.68174 4.44262,14.77126 6.20597,17.17006 z"
         style="fill:#000000;fill-opacity:1;stroke:none" />
      <rect
         transform="matrix(0.97966128,0.20065836,-0.26011533,0.96557755,0,0)"
         y="347.53375"
         x="337.21844"
         height="9.7746801"
         width="11.048734"
         id="rect2987-7-9-3"
         style="fill:#000000;fill-opacity:1;fill-rule:evenodd;stroke:none" />
      <rect
         transform="matrix(0.97966128,0.20065836,-0.26011533,0.96557755,0,0)"
         y="357.30844"
         x="348.26718"
         height="9.7746801"
         width="11.048734"
         id="rect2987-7-0-1-9"
         style="fill:#000000;fill-opacity:1;fill-rule:evenodd;stroke:none" />
      <rect
         transform="matrix(0.97966128,0.20065836,-0.26011533,0.96557755,0,0)"
         y="396.40717"
         x="392.46213"
         height="9.7746801"
         width="11.048734"
         id="rect2987-7-4-8-8"
         style="fill:#000000;fill-opacity:1;fill-rule:evenodd;stroke:none" />
      <rect
         transform="matrix(0.97966128,0.20065836,0.26011533,-0.96557755,0,0)"
         y="-415.95654"
         x="403.51086"
         height="9.7746801"
         width="11.048734"
         id="rect2987-7-8-5-8"
         style="fill:#000000;fill-opacity:1;fill-rule:evenodd;stroke:none" />
      <rect
         transform="matrix(0.97966128,0.20065836,-0.26011533,0.96557755,0,0)"
         y="376.85779"
         x="370.36465"
         height="9.7746801"
         width="11.048734"
         id="rect2987-7-45-8-6"
         style="fill:#000000;fill-opacity:1;fill-rule:evenodd;stroke:none" />
      <rect
         transform="matrix(0.97966128,0.20065836,-0.26011533,0.96557755,0,0)"
         y="367.08313"
         x="359.31592"
         height="9.7746801"
         width="11.048734"
         id="rect2987-7-1-2-0"
         style="fill:#000000;fill-opacity:1;fill-rule:evenodd;stroke:none" />
      <rect
         transform="matrix(0.97966128,0.20065836,-0.26011533,0.96557755,0,0)"
         y="386.63248"
         x="381.41339"
         height="9.7746801"
         width="11.048734"
         id="rect2987-7-11-8-8"
         style="fill:#000000;fill-opacity:1;fill-rule:evenodd;stroke:none" />
      <rect
         transform="matrix(0.97966128,0.20065836,0.26011533,-0.96557755,0,0)"
         y="-435.50589"
         x="425.60831"
         height="9.7746801"
         width="11.048734"
         id="rect2987-7-8-6-0-5"
         style="fill:#000000;fill-opacity:1;fill-rule:evenodd;stroke:none" />
      <rect
         transform="matrix(0.97966128,0.20065836,-0.26011533,0.96557755,0,0)"
         y="415.95651"
         x="414.55957"
         height="9.7746801"
         width="11.048734"
         id="rect2987-7-11-4-1-9"
         style="fill:#000000;fill-opacity:1;fill-rule:evenodd;stroke:none" />
      <rect
         transform="matrix(0.97966128,0.20065836,-0.26011533,0.96557755,0,0)"
         y="335.94745"
         x="444.08768"
         height="9.7746801"
         width="11.048734"
         id="rect2987-7-0-1-0"
         style="fill:#000000;fill-opacity:1;fill-rule:evenodd;stroke:none" />
      <rect
         transform="matrix(0.97966128,0.20065836,-0.26011533,0.96557755,0,0)"
         y="375.04617"
         x="488.28259"
         height="9.7746801"
         width="11.048734"
         id="rect2987-7-4-8-6"
         style="fill:#000000;fill-opacity:1;fill-rule:evenodd;stroke:none" />
      <rect
         transform="matrix(0.97966128,0.20065836,0.26011533,-0.96557755,0,0)"
         y="-394.59555"
         x="499.33133"
         height="9.7746801"
         width="11.048734"
         id="rect2987-7-8-5-0"
         style="fill:#000000;fill-opacity:1;fill-rule:evenodd;stroke:none" />
      <rect
         transform="matrix(0.97966128,0.20065836,-0.26011533,0.96557755,0,0)"
         y="355.4968"
         x="466.18512"
         height="9.7746801"
         width="11.048734"
         id="rect2987-7-45-8-1"
         style="fill:#000000;fill-opacity:1;fill-rule:evenodd;stroke:none" />
      <rect
         transform="matrix(0.97966128,0.20065836,-0.26011533,0.96557755,0,0)"
         y="345.72214"
         x="455.13641"
         height="9.7746801"
         width="11.048734"
         id="rect2987-7-1-2-9"
         style="fill:#000000;fill-opacity:1;fill-rule:evenodd;stroke:none" />
      <rect
         transform="matrix(0.97966128,0.20065836,-0.26011533,0.96557755,0,0)"
         y="365.27148"
         x="477.23386"
         height="9.7746801"
         width="11.048734"
         id="rect2987-7-11-8-4"
         style="fill:#000000;fill-opacity:1;fill-rule:evenodd;stroke:none" />
      <rect
         transform="matrix(0.97966128,0.20065836,-0.26011533,0.96557755,0,0)"
         y="394.59552"
         x="510.38007"
         height="9.7746801"
         width="11.048734"
         id="rect2987-7-11-4-1-8"
         style="fill:#000000;fill-opacity:1;fill-rule:evenodd;stroke:none" />
      <rect
         transform="matrix(0.97966128,0.20065836,-0.26011533,0.96557755,0,0)"
         y="359.35873"
         x="575.53149"
         height="9.7746801"
         width="11.048734"
         id="rect2987-7-4-8-7"
         style="fill:#000000;fill-opacity:1;fill-rule:evenodd;stroke:none" />
      <rect
         transform="matrix(0.97966128,0.20065836,0.26011533,-0.96557755,0,0)"
         y="-378.90811"
         x="586.5802"
         height="9.7746801"
         width="11.048734"
         id="rect2987-7-8-5-4"
         style="fill:#000000;fill-opacity:1;fill-rule:evenodd;stroke:none" />
      <rect
         transform="matrix(0.97966128,0.20065836,-0.26011533,0.96557755,0,0)"
         y="339.80936"
         x="553.43402"
         height="9.7746801"
         width="11.048734"
         id="rect2987-7-45-8-65"
         style="fill:#000000;fill-opacity:1;fill-rule:evenodd;stroke:none" />
      <rect
         transform="matrix(0.97966128,0.20065836,-0.26011533,0.96557755,0,0)"
         y="330.0347"
         x="542.38525"
         height="9.7746801"
         width="11.048734"
         id="rect2987-7-1-2-09"
         style="fill:#000000;fill-opacity:1;fill-rule:evenodd;stroke:none" />
      <rect
         transform="matrix(0.97966128,0.20065836,-0.26011533,0.96557755,0,0)"
         y="349.58405"
         x="564.48273"
         height="9.7746801"
         width="11.048734"
         id="rect2987-7-11-8-6"
         style="fill:#000000;fill-opacity:1;fill-rule:evenodd;stroke:none" />
      <flowRoot
         transform="translate(-12.86607,-1143.622)"
         style="font-size:40px;font-style:normal;font-variant:normal;font-weight:normal;font-stretch:normal;line-height:125%;letter-spacing:0px;word-spacing:0px;fill:#000000;fill-opacity:1;stroke:none;font-family:ceva;-inkscape-font-specification:ceva"
         id="flowRoot3687"
         xml:space="preserve"><flowRegion
           id="flowRegion3689"><rect
             y="1750.2699"
             x="161.42857"
             height="62.857143"
             width="574.28571"
             id="rect3691" /></flowRegion><flowPara
           style="font-size:27px;font-style:normal;font-variant:normal;font-weight:normal;font-stretch:normal;font-family:'5x5 Pixel';-inkscape-font-specification:'5x5 Pixel'"
           id="flowPara3693">TEL  AVIV  HACKERSPACE</flowPara></flowRoot>    </g>
    <text
       xml:space="preserve"
       style="font-size:40px;font-style:normal;font-weight:normal;line-height:125%;letter-spacing:0px;word-spacing:0px;fill:#000000;fill-opacity:1;stroke:none;font-family:Sans"
       x="32.374516"
       y="190.46719"
       id="text3378"
       sodipodi:linespacing="125%"
       transform="translate(0,857.48021)"><tspan
         sodipodi:role="line"
         id="tspan3380"
         x="32.374516"
         y="190.46719"
         style="font-size:11px;-inkscape-font-specification:MS PMincho;font-family:MS PMincho;font-weight:normal;font-style:normal;font-stretch:normal;font-variant:normal">Telavivmakers.org</tspan></text>
  </g>
  <g
     inkscape:groupmode="layer"
     id="layer2"
     inkscape:label="grid"
     transform="translate(0,-1931.1022)" />
</svg>
