<?xml version="1.0" encoding="UTF-8" standalone="no"?>
<!-- Created with Inkscape (http://www.inkscape.org/) -->

<svg
   xmlns:dc="http://purl.org/dc/elements/1.1/"
   xmlns:cc="http://creativecommons.org/ns#"
   xmlns:rdf="http://www.w3.org/1999/02/22-rdf-syntax-ns#"
   xmlns:svg="http://www.w3.org/2000/svg"
   xmlns="http://www.w3.org/2000/svg"
   xmlns:sodipodi="http://sodipodi.sourceforge.net/DTD/sodipodi-0.dtd"
   xmlns:inkscape="http://www.inkscape.org/namespaces/inkscape"
   sodipodi:docname="tami_logo_cut_via_svg2poly_tips.svg"
   inkscape:version="0.48.4 r9939"
   version="1.1"
   id="svg2"
   height="224.15918"
   width="356.33069">
  <sodipodi:namedview
     id="base"
     pagecolor="#ffffff"
     bordercolor="#666666"
     borderopacity="1.0"
     inkscape:pageopacity="0.0"
     inkscape:pageshadow="2"
     inkscape:zoom="4.1086874"
     inkscape:cx="178.16534"
     inkscape:cy="112.07959"
     inkscape:document-units="mm"
     inkscape:current-layer="layer1"
     showgrid="false"
     fit-margin-top="1"
     fit-margin-left="1"
     fit-margin-right="1"
     fit-margin-bottom="1"
     inkscape:window-width="1920"
     inkscape:window-height="1138"
     inkscape:window-x="-8"
     inkscape:window-y="-8"
     inkscape:window-maximized="1" />
  <defs
     id="defs4">
    <filter
       color-interpolation-filters="sRGB"
       x="0"
       y="0"
       width="1"
       height="1"
       inkscape:label="Invert"
       inkscape:menu="Color"
       inkscape:menu-tooltip="Invert colors"
       id="filter3557">
      <feColorMatrix
         in="SourceGraphic"
         type="luminanceToAlpha"
         result="result14"
         id="feColorMatrix3559" />
      <feComposite
         operator="out"
         result="fbSourceGraphic"
         in="SourceGraphic"
         in2="result14"
         id="feComposite3561" />
      <feBlend
         result="fbSourceGraphic"
         mode="normal"
         in2="fbSourceGraphic"
         id="feBlend3563" />
      <feColorMatrix
         id="feColorMatrix3937"
         values="0 0 0 -1 0 0 0 0 -1 0 0 0 0 -1 0 0 0 0 1 0"
         in="fbSourceGraphic"
         result="fbSourceGraphicAlpha" />
      <feColorMatrix
         in="fbSourceGraphic"
         result="fbSourceGraphic"
         values="1"
         type="saturate"
         id="feColorMatrix3939" />
      <feColorMatrix
         result="fbSourceGraphic"
         values="-1 0 0 0 1 0 -1 0 0 1 0 0 -1 0 1 0 0 0 1 0 "
         in="fbSourceGraphic"
         id="feColorMatrix3941" />
      <feColorMatrix
         id="feColorMatrix3943"
         values="0 0 0 -1 0 0 0 0 -1 0 0 0 0 -1 0 0 0 0 1 0"
         in="fbSourceGraphic"
         result="fbSourceGraphicAlpha" />
      <feColorMatrix
         in="fbSourceGraphic"
         result="fbSourceGraphic"
         values="1"
         type="saturate"
         id="feColorMatrix3945" />
      <feColorMatrix
         result="fbSourceGraphic"
         values="-1 0 0 0 1 0 -1 0 0 1 0 0 -1 0 1 0 0 0 1 0 "
         in="fbSourceGraphic"
         id="feColorMatrix3947" />
      <feColorMatrix
         id="feColorMatrix3949"
         values="0 0 0 -1 0 0 0 0 -1 0 0 0 0 -1 0 0 0 0 1 0"
         in="fbSourceGraphic"
         result="fbSourceGraphicAlpha" />
      <feColorMatrix
         in="fbSourceGraphic"
         result="fbSourceGraphic"
         values="1"
         type="saturate"
         id="feColorMatrix3951" />
      <feColorMatrix
         values="-1 0 0 0 1 0 -1 0 0 1 0 0 -1 0 1 0 0 0 1 0 "
         in="fbSourceGraphic"
         id="feColorMatrix3953" />
    </filter>
  </defs>
  <metadata
     id="metadata7">
    <rdf:RDF>
      <cc:Work
         rdf:about="">
        <dc:format>image/svg+xml</dc:format>
        <dc:type
           rdf:resource="http://purl.org/dc/dcmitype/StillImage" />
        <dc:title></dc:title>
      </cc:Work>
    </rdf:RDF>
  </metadata>
  <g
     inkscape:label="Layer 1"
     inkscape:groupmode="layer"
     id="layer1"
     transform="translate(-502.20848,224.42545)">
    <path
       style="font-size:31.83890915px;font-style:normal;font-variant:normal;font-weight:normal;font-stretch:normal;line-height:125%;letter-spacing:0px;word-spacing:0px;fill:#000000;fill-opacity:1;stroke:none;font-family:Visitor TT1 BRK;-inkscape-font-specification:Visitor TT1 BRK"
       d="m 532.081,-41.319018 4.60575,0 0,8.813374 2.30217,0 0,-8.813374 4.60574,0 0,-2.203513 -5.75683,0 -5.75683,0 0,2.203513"
       id="path5049" />
    <path
       style="font-size:31.83890915px;font-style:normal;font-variant:normal;font-weight:normal;font-stretch:normal;line-height:125%;letter-spacing:0px;word-spacing:0px;fill:#000000;fill-opacity:1;stroke:none;font-family:Visitor TT1 BRK;-inkscape-font-specification:Visitor TT1 BRK"
       d="m 545.8884,-32.505644 5.75683,0 5.75683,0 0,-2.203513 -9.21079,0 0,-2.203513 4.60504,0 0,-2.202842 -4.60504,0 0,-2.203506 9.21079,0 0,-2.203513 -5.75683,0 -5.75683,0 0,5.508443 0,5.508444"
       id="path5051" />
    <path
       style="font-size:31.83890915px;font-style:normal;font-variant:normal;font-weight:normal;font-stretch:normal;line-height:125%;letter-spacing:0px;word-spacing:0px;fill:#000000;fill-opacity:1;stroke:none;font-family:Visitor TT1 BRK;-inkscape-font-specification:Visitor TT1 BRK"
       d="m 559.69579,-32.505644 5.75683,0 5.75683,0 0,-2.203513 -9.21078,0 0,-8.813374 -2.30288,0 0,5.508443 0,5.508444"
       id="path5053" />
    <path
       style="font-size:31.83890915px;font-style:normal;font-variant:normal;font-weight:normal;font-stretch:normal;line-height:125%;letter-spacing:0px;word-spacing:0px;fill:#000000;fill-opacity:1;stroke:none;font-family:Visitor TT1 BRK;-inkscape-font-specification:Visitor TT1 BRK"
       d="m 593.23973,-36.92545 3.28125,0 0,4.40625 2.3125,0 0,-5.5 0,-5.5 -5.59375,0 0,2.1875 3.28125,0 0,2.21875 -3.28125,0 0,2.1875 z"
       id="path7462" />
    <path
       style="font-size:31.83890915px;font-style:normal;font-variant:normal;font-weight:normal;font-stretch:normal;line-height:125%;letter-spacing:0px;word-spacing:0px;fill:#000000;fill-opacity:1;stroke:none;font-family:Visitor TT1 BRK;-inkscape-font-specification:Visitor TT1 BRK"
       d="m 593.23973,-36.92545 0,-2.1875 -3.625,0 0,-2.21875 3.625,0 0,-2.1875 -0.1875,0 -5.75,0 0,5.5 0,5.5 2.3125,0 0,-4.40625 3.625,0 z"
       id="path5055" />
    <path
       style="font-size:31.83890915px;font-style:normal;font-variant:normal;font-weight:normal;font-stretch:normal;line-height:125%;letter-spacing:0px;word-spacing:0px;fill:#000000;fill-opacity:1;stroke:none;font-family:Visitor TT1 BRK;-inkscape-font-specification:Visitor TT1 BRK"
       d="m 603.42086,-34.709157 2.30287,0 0,2.203513 2.30217,0 0,-2.203513 -2.30217,0 0,-2.203513 -2.30287,0 0,-6.609861 -2.30288,0 0,6.609861 2.30288,0 0,2.203513"
       id="path7538" />
    <path
       style="font-size:31.83890915px;font-style:normal;font-variant:normal;font-weight:normal;font-stretch:normal;line-height:125%;letter-spacing:0px;word-spacing:0px;fill:#000000;fill-opacity:1;stroke:none;font-family:Visitor TT1 BRK;-inkscape-font-specification:Visitor TT1 BRK"
       d="m 610.32877,-36.91267 2.30288,0 0,-6.609861 -2.30288,0 0,6.609861"
       id="path7536" />
    <path
       style="font-size:31.83890915px;font-style:normal;font-variant:normal;font-weight:normal;font-stretch:normal;line-height:125%;letter-spacing:0px;word-spacing:0px;fill:#000000;fill-opacity:1;stroke:none;font-family:Visitor TT1 BRK;-inkscape-font-specification:Visitor TT1 BRK"
       d="m 608.0259,-34.709157 2.30287,0 0,-2.203513 -2.30287,0 0,2.203513"
       id="path5057" />
    <path
       style="font-size:31.83890915px;font-style:normal;font-variant:normal;font-weight:normal;font-stretch:normal;line-height:125%;letter-spacing:0px;word-spacing:0px;fill:#000000;fill-opacity:1;stroke:none;font-family:Visitor TT1 BRK;-inkscape-font-specification:Visitor TT1 BRK"
       d="m 614.92538,-32.505644 2.30287,0 0,-5.508444 0,-5.508443 -2.30287,0 0,5.508443 0,5.508444"
       id="path5059" />
    <path
       style="font-size:31.83890915px;font-style:normal;font-variant:normal;font-weight:normal;font-stretch:normal;line-height:125%;letter-spacing:0px;word-spacing:0px;fill:#000000;fill-opacity:1;stroke:none;font-family:Visitor TT1 BRK;-inkscape-font-specification:Visitor TT1 BRK"
       d="m 621.81572,-34.709157 2.30288,0 0,2.203513 2.30216,0 0,-2.203513 -2.30216,0 0,-2.203513 -2.30288,0 0,-6.609861 -2.30287,0 0,6.609861 2.30287,0 0,2.203513"
       id="path7546" />
    <path
       style="font-size:31.83890915px;font-style:normal;font-variant:normal;font-weight:normal;font-stretch:normal;line-height:125%;letter-spacing:0px;word-spacing:0px;fill:#000000;fill-opacity:1;stroke:none;font-family:Visitor TT1 BRK;-inkscape-font-specification:Visitor TT1 BRK"
       d="m 628.72364,-36.91267 2.30287,0 0,-6.609861 -2.30287,0 0,6.609861"
       id="path7544" />
    <path
       style="font-size:31.83890915px;font-style:normal;font-variant:normal;font-weight:normal;font-stretch:normal;line-height:125%;letter-spacing:0px;word-spacing:0px;fill:#000000;fill-opacity:1;stroke:none;font-family:Visitor TT1 BRK;-inkscape-font-specification:Visitor TT1 BRK"
       d="m 626.42076,-34.709157 2.30288,0 0,-2.203513 -2.30288,0 0,2.203513"
       id="path5061" />
    <path
       style="font-size:31.83890915px;font-style:normal;font-variant:normal;font-weight:normal;font-stretch:normal;line-height:125%;letter-spacing:0px;word-spacing:0px;fill:#000000;fill-opacity:1;stroke:none;font-family:Visitor TT1 BRK;-inkscape-font-specification:Visitor TT1 BRK"
       d="m 649.43051,-39.115512 2.30287,0 0,2.202842 2.30218,0 0,-2.202842 -2.30218,0 0,-2.203506 -2.30287,0 0,-2.203513 -2.30287,0 0,5.508443 0,5.508444 2.30287,0 0,-6.609868"
       id="path7550" />
    <path
       style="font-size:31.83890915px;font-style:normal;font-variant:normal;font-weight:normal;font-stretch:normal;line-height:125%;letter-spacing:0px;word-spacing:0px;fill:#000000;fill-opacity:1;stroke:none;font-family:Visitor TT1 BRK;-inkscape-font-specification:Visitor TT1 BRK"
       d="m 656.33842,-32.505644 2.30288,0 0,-5.508444 0,-5.508443 -2.30288,0 0,2.203513 -2.30286,0 0,2.203506 2.30286,0 0,6.609868"
       id="path5063" />
    <path
       style="font-size:31.83890915px;font-style:normal;font-variant:normal;font-weight:normal;font-stretch:normal;line-height:125%;letter-spacing:0px;word-spacing:0px;fill:#000000;fill-opacity:1;stroke:none;font-family:Visitor TT1 BRK;-inkscape-font-specification:Visitor TT1 BRK"
       d="m 660.93504,-32.505644 2.30288,0 0,-2.203513 -2.30288,0 0,2.203513"
       id="path7560" />
    <path
       style="font-size:31.83890915px;font-style:normal;font-variant:normal;font-weight:normal;font-stretch:normal;line-height:125%;letter-spacing:0px;word-spacing:0px;fill:#000000;fill-opacity:1;stroke:none;font-family:Visitor TT1 BRK;-inkscape-font-specification:Visitor TT1 BRK"
       d="m 663.23792,-34.709157 2.30287,0 0,-2.203513 -2.30287,0 0,2.203513"
       id="path7558" />
    <path
       style="font-size:31.83890915px;font-style:normal;font-variant:normal;font-weight:normal;font-stretch:normal;line-height:125%;letter-spacing:0px;word-spacing:0px;fill:#000000;fill-opacity:1;stroke:none;font-family:Visitor TT1 BRK;-inkscape-font-specification:Visitor TT1 BRK"
       d="m 665.54079,-36.91267 2.30217,0 0,-2.202842 -2.30217,0 0,2.202842"
       id="path7556" />
    <path
       style="font-size:31.83890915px;font-style:normal;font-variant:normal;font-weight:normal;font-stretch:normal;line-height:125%;letter-spacing:0px;word-spacing:0px;fill:#000000;fill-opacity:1;stroke:none;font-family:Visitor TT1 BRK;-inkscape-font-specification:Visitor TT1 BRK"
       d="m 667.84296,-39.115512 2.30287,0 0,-2.203506 -2.30287,0 0,2.203506"
       id="path7554" />
    <path
       style="font-size:31.83890915px;font-style:normal;font-variant:normal;font-weight:normal;font-stretch:normal;line-height:125%;letter-spacing:0px;word-spacing:0px;fill:#000000;fill-opacity:1;stroke:none;font-family:Visitor TT1 BRK;-inkscape-font-specification:Visitor TT1 BRK"
       d="m 670.14583,-41.319018 2.30287,0 0,-2.203513 -2.30287,0 0,2.203513"
       id="path5065" />
    <path
       style="font-size:31.83890915px;font-style:normal;font-variant:normal;font-weight:normal;font-stretch:normal;line-height:125%;letter-spacing:0px;word-spacing:0px;fill:#000000;fill-opacity:1;stroke:none;font-family:Visitor TT1 BRK;-inkscape-font-specification:Visitor TT1 BRK"
       d="m 683.95322,-32.505644 2.30287,0 0,-5.508444 0,-5.508443 -2.30287,0 0,4.407019 -6.90791,0 0,-4.407019 -2.30288,0 0,5.508443 0,5.508444 2.30288,0 0,-4.407026 6.90791,0 0,4.407026"
       id="path5067" />
    <path
       style="font-size:31.83890915px;font-style:normal;font-variant:normal;font-weight:normal;font-stretch:normal;line-height:125%;letter-spacing:0px;word-spacing:0px;fill:#000000;fill-opacity:1;stroke:none;font-family:Visitor TT1 BRK;-inkscape-font-specification:Visitor TT1 BRK"
       d="m 694.23973,-43.5192 -5.6875,0 0,5.5 0,5.5 2.3125,0 0,-4.40625 3.375,0 0,-2.1875 -3.375,0 0,-2.21875 3.375,0 0,-2.1875 z"
       id="path7502" />
    <path
       style="font-size:31.83890915px;font-style:normal;font-variant:normal;font-weight:normal;font-stretch:normal;line-height:125%;letter-spacing:0px;word-spacing:0px;fill:#000000;fill-opacity:1;stroke:none;font-family:Visitor TT1 BRK;-inkscape-font-specification:Visitor TT1 BRK"
       d="m 694.23973,-43.5192 0,2.1875 3.53125,0 0,2.21875 -3.53125,0 0,2.1875 3.53125,0 0,4.40625 2.28125,0 0,-5.5 0,-5.5 -5.75,0 -0.0625,0 z"
       id="path5069" />
    <path
       style="font-size:31.83890915px;font-style:normal;font-variant:normal;font-weight:normal;font-stretch:normal;line-height:125%;letter-spacing:0px;word-spacing:0px;fill:#000000;fill-opacity:1;stroke:none;font-family:Visitor TT1 BRK;-inkscape-font-specification:Visitor TT1 BRK"
       d="m 702.35723,-32.505644 5.75683,0 5.75683,0 0,-2.203513 -9.21079,0 0,-6.609861 9.21079,0 0,-2.203513 -5.75683,0 -5.75683,0 0,5.508443 0,5.508444"
       id="path5071" />
    <path
       style="font-size:31.83890915px;font-style:normal;font-variant:normal;font-weight:normal;font-stretch:normal;line-height:125%;letter-spacing:0px;word-spacing:0px;fill:#000000;fill-opacity:1;stroke:none;font-family:Visitor TT1 BRK;-inkscape-font-specification:Visitor TT1 BRK"
       d="m 723.07253,-34.709157 2.30288,0 0,2.203513 2.30287,0 0,-2.203513 -2.30287,0 0,-2.203513 -2.30288,0 0,-2.202842 -4.60504,0 0,-4.407019 -2.30287,0 0,5.508443 0,5.508444 2.30287,0 0,-4.407026 4.60504,0 0,2.203513"
       id="path7574" />
    <path
       style="font-size:31.83890915px;font-style:normal;font-variant:normal;font-weight:normal;font-stretch:normal;line-height:125%;letter-spacing:0px;word-spacing:0px;fill:#000000;fill-opacity:1;stroke:none;font-family:Visitor TT1 BRK;-inkscape-font-specification:Visitor TT1 BRK"
       d="m 725.37541,-39.115512 0,-2.203506 -2.30288,0 0,2.203506 2.30288,0"
       id="path7572" />
    <path
       style="font-size:31.83890915px;font-style:normal;font-variant:normal;font-weight:normal;font-stretch:normal;line-height:125%;letter-spacing:0px;word-spacing:0px;fill:#000000;fill-opacity:1;stroke:none;font-family:Visitor TT1 BRK;-inkscape-font-specification:Visitor TT1 BRK"
       d="m 725.37541,-41.319018 2.30287,0 0,-2.203513 -2.30287,0 0,2.203513"
       id="path5073" />
    <path
       style="font-size:31.83890915px;font-style:normal;font-variant:normal;font-weight:normal;font-stretch:normal;line-height:125%;letter-spacing:0px;word-spacing:0px;fill:#000000;fill-opacity:1;stroke:none;font-family:Visitor TT1 BRK;-inkscape-font-specification:Visitor TT1 BRK"
       d="m 729.97203,-32.505644 5.75682,0 5.75683,0 0,-2.203513 -9.21079,0 0,-2.203513 4.60505,0 0,-2.202842 -4.60505,0 0,-2.203506 9.21079,0 0,-2.203513 -5.75683,0 -5.75682,0 0,5.508443 0,5.508444"
       id="path5075" />
    <path
       style="font-size:31.83890915px;font-style:normal;font-variant:normal;font-weight:normal;font-stretch:normal;line-height:125%;letter-spacing:0px;word-spacing:0px;fill:#000000;fill-opacity:1;stroke:none;font-family:Visitor TT1 BRK;-inkscape-font-specification:Visitor TT1 BRK"
       d="m 752.98973,-34.7067 0,2.1875 2.3125,0 0,-2.1875 -2.3125,0 z"
       id="path7507" />
    <path
       style="font-size:31.83890915px;font-style:normal;font-variant:normal;font-weight:normal;font-stretch:normal;line-height:125%;letter-spacing:0px;word-spacing:0px;fill:#000000;fill-opacity:1;stroke:none;font-family:Visitor TT1 BRK;-inkscape-font-specification:Visitor TT1 BRK"
       d="m 748.52098,-36.92545 2.15625,0 0,2.21875 2.3125,0 0,-2.21875 2.3125,0 0,-6.59375 -5.78125,0 -1,0 0,2.1875 4.46875,0 0,2.21875 -4.46875,0 0,2.1875 z"
       id="path7505" />
    <path
       style="font-size:31.83890915px;font-style:normal;font-variant:normal;font-weight:normal;font-stretch:normal;line-height:125%;letter-spacing:0px;word-spacing:0px;fill:#000000;fill-opacity:1;stroke:none;font-family:Visitor TT1 BRK;-inkscape-font-specification:Visitor TT1 BRK"
       d="m 748.52098,-36.92545 0,-2.1875 -2.4375,0 0,-2.21875 2.4375,0 0,-2.1875 -4.75,0 0,5.5 0,5.5 2.3125,0 0,-4.40625 2.4375,0 z"
       id="path5077" />
    <path
       style="font-size:31.83890915px;font-style:normal;font-variant:normal;font-weight:normal;font-stretch:normal;line-height:125%;letter-spacing:0px;word-spacing:0px;fill:#000000;fill-opacity:1;stroke:none;font-family:Visitor TT1 BRK;-inkscape-font-specification:Visitor TT1 BRK"
       d="m 757.5868,-36.91267 9.21078,0 0,2.203513 -9.21078,0 0,2.203513 5.75682,0 5.75683,0 0,-6.609868 -9.21078,0 0,-2.203506 9.21078,0 0,-2.203513 -5.75683,0 -5.75682,0 0,6.609861"
       id="path5079" />
    <path
       style="font-size:31.83890915px;font-style:normal;font-variant:normal;font-weight:normal;font-stretch:normal;line-height:125%;letter-spacing:0px;word-spacing:0px;fill:#000000;fill-opacity:1;stroke:none;font-family:Visitor TT1 BRK;-inkscape-font-specification:Visitor TT1 BRK"
       d="m 777.48973,-43.5192 -0.34375,0 -5.75,0 0,5.5 0,5.5 2.3125,0 0,-4.40625 3.78125,0 0,-2.1875 -3.78125,0 0,-2.21875 3.78125,0 0,-2.1875 z"
       id="path7510" />
    <path
       style="font-size:31.83890915px;font-style:normal;font-variant:normal;font-weight:normal;font-stretch:normal;line-height:125%;letter-spacing:0px;word-spacing:0px;fill:#000000;fill-opacity:1;stroke:none;font-family:Visitor TT1 BRK;-inkscape-font-specification:Visitor TT1 BRK"
       d="m 777.48973,-43.5192 0,2.1875 3.125,0 0,2.21875 -3.125,0 0,2.1875 5.40625,0 0,-6.59375 -5.40625,0 z"
       id="path5081" />
    <path
       style="font-size:31.83890915px;font-style:normal;font-variant:normal;font-weight:normal;font-stretch:normal;line-height:125%;letter-spacing:0px;word-spacing:0px;fill:#000000;fill-opacity:1;stroke:none;font-family:Visitor TT1 BRK;-inkscape-font-specification:Visitor TT1 BRK"
       d="m 790.86473,-43.5192 -5.65625,0 0,5.5 0,5.5 2.28125,0 0,-4.40625 3.375,0 0,-2.1875 -3.375,0 0,-2.21875 3.375,0 0,-2.1875 z"
       id="path7513" />
    <path
       style="font-size:31.83890915px;font-style:normal;font-variant:normal;font-weight:normal;font-stretch:normal;line-height:125%;letter-spacing:0px;word-spacing:0px;fill:#000000;fill-opacity:1;stroke:none;font-family:Visitor TT1 BRK;-inkscape-font-specification:Visitor TT1 BRK"
       d="m 790.86473,-43.5192 0,2.1875 3.5625,0 0,2.21875 -3.5625,0 0,2.1875 3.5625,0 0,4.40625 2.28125,0 0,-5.5 0,-5.5 -5.75,0 -0.0937,0 z"
       id="path5083" />
    <path
       style="font-size:31.83890915px;font-style:normal;font-variant:normal;font-weight:normal;font-stretch:normal;line-height:125%;letter-spacing:0px;word-spacing:0px;fill:#000000;fill-opacity:1;stroke:none;font-family:Visitor TT1 BRK;-inkscape-font-specification:Visitor TT1 BRK"
       d="m 799.00899,-32.505644 5.75683,0 5.75683,0 0,-2.203513 -9.21079,0 0,-6.609861 9.21079,0 0,-2.203513 -5.75683,0 -5.75683,0 0,5.508443 0,5.508444"
       id="path5085" />
    <path
       style="font-size:31.83890915px;font-style:normal;font-variant:normal;font-weight:normal;font-stretch:normal;line-height:125%;letter-spacing:0px;word-spacing:0px;fill:#000000;fill-opacity:1;stroke:none;font-family:Visitor TT1 BRK;-inkscape-font-specification:Visitor TT1 BRK"
       d="m 812.81639,-32.505644 5.75683,0 5.75683,0 0,-2.203513 -9.21079,0 0,-2.203513 4.60504,0 0,-2.202842 -4.60504,0 0,-2.203506 9.21079,0 0,-2.203513 -5.75683,0 -5.75683,0 0,5.508443 0,5.508444"
       id="path5087" />
    <path
       style="fill:#000000;fill-opacity:1;stroke:none"
       d="m 533.11473,-209.92545 -1.78125,6.65625 7.65625,1.59375 1.78125,-6.6875 z"
       id="path7646" />
    <path
       style="fill:#000000;fill-opacity:1;stroke:none"
       d="m 538.98973,-201.67545 -1.8125,6.65625 7.65625,1.59375 1.8125,-6.6875 z"
       id="path7644" />
    <path
       style="fill:#000000;fill-opacity:1;stroke:none"
       d="m 544.83348,-193.42545 -1.78125,6.65625 7.65625,1.5625 1.78125,-6.65625 z"
       id="path7642" />
    <path
       style="fill:#000000;fill-opacity:1;stroke:none"
       d="m 550.70848,-185.2067 -1.8125,6.6875 7.65625,1.5625 1.8125,-6.65625 z"
       id="path7640" />
    <path
       style="fill:#000000;fill-opacity:1;stroke:none"
       d="m 556.55223,-176.9567 -1.78125,6.6875 7.65625,1.5625 1.78125,-6.6875 z"
       id="path7638" />
    <path
       style="fill:#000000;fill-opacity:1;stroke:none"
       d="m 562.42723,-168.7067 -1.0625,3.90625 -8.46875,0.0625 0.8125,6.53125 3.5625,5.625 9.84375,-0.3125 3.125,-0.0937 3.90625,0.78125 0.25,-0.9375 2.59375,-0.0937 9.84375,-0.3125 9.84375,-0.3125 9.84375,-0.3125 5,-0.15625 -0.0937,5.21875 -0.15625,9.375 -0.15625,9.375 -0.15625,9.375 -0.15625,9.375 -0.15625,9.375 -0.15625,9.375 -0.15625,9.375 -0.15625,9.375 -0.15625,9.375 -0.39964,12.59193 5.71875,0.15625 5.65625,-0.375 0.27464,-12.65443 0.0625,-9.46875 0.0625,-9.4375 0.0312,-9.46875 0.0625,-9.4375 0.0625,-9.4375 0.0312,-9.46875 0.0625,-9.4375 0.0625,-9.46875 0.0312,-9.4375 0.0312,-4.5625 4.46875,-0.15625 9.84375,-0.3125 9.84375,-0.3125 2.75,-0.0937 0,0.0625 7.65625,1.5625 0.5,-1.875 8.8125,-0.28125 9.84375,-0.3125 9.875,-0.34375 9.84375,-0.3125 9.84375,-0.3125 9.84375,-0.3125 4.5,-0.15625 -0.375,1.375 7.65625,1.5625 0.84375,-3.1875 7.09375,-0.21875 9.84375,-0.3125 9.84375,-0.3125 9.875,-0.3125 9.84375,-0.3125 9.71875,-0.3125 -1.375,5.0625 7.65625,1.5625 1.8125,-6.65625 -1.03125,-0.21875 2.9064,-0.0937 9.875,-0.3125 -0.65625,-6.21875 -9.625,0.0625 -7.75,0.0625 0.40625,-1.53125 -7.65625,-1.59375 -0.84375,3.1875 -3.40625,0.0312 -9.59375,0.0937 -9.625,0.0625 -9.625,0.0937 -9.625,0.0625 -9.59375,0.0625 -4.375,0.0312 1,-3.71875 -7.65625,-1.5625 -1.46875,5.375 -6.75,0.0312 -9.59375,0.0937 -9.625,0.0625 -9.625,0.0625 -9.625,0.0937 -9.59375,0.0625 -7.3125,0.0625 0.90625,-3.28125 -7.65625,-1.5625 -1.34375,4.90625 -3.84375,0.0312 -9.625,0.0937 -7.96875,0.0625 0.0312,-3.71875 -5.0625,0.5625 -5.0625,0.5625 -0.0312,2.65625 -1.125,0 -9.625,0.0937 -9.59375,0.0625 -9.625,0.0937 -9.625,0.0625 -2.65625,0.0312 0.625,-2.28125 z"
       id="path7636" />
    <path
       style="fill:#000000;fill-opacity:1;stroke:none"
       d="m 644.61473,-170.36295 1.78125,-6.6875 -7.65625,-1.5625 -1.78125,6.6875 z"
       id="path7634" />
    <path
       style="fill:#000000;fill-opacity:1;stroke:none"
       d="m 638.73973,-178.61295 1.8125,-6.6875 -7.65625,-1.5625 -1.8125,6.6875 z"
       id="path7632" />
    <path
       style="fill:#000000;fill-opacity:1;stroke:none"
       d="m 632.89598,-186.86295 1.78125,-6.6875 -7.65625,-1.5625 -1.78125,6.6875 z"
       id="path7630" />
    <path
       style="fill:#000000;fill-opacity:1;stroke:none"
       d="m 627.02098,-195.11295 1.8125,-6.6875 -7.65625,-1.5625 -1.8125,6.6875 z"
       id="path7628" />
    <path
       style="fill:#000000;fill-opacity:1;stroke:none"
       d="m 714.95848,-171.36295 1.78125,-6.6875 -7.65625,-1.5625 -1.78125,6.6875 z"
       id="path7626" />
    <path
       style="fill:#000000;fill-opacity:1;stroke:none"
       d="m 709.08348,-179.61295 1.8125,-6.65625 -7.65625,-1.59375 -1.8125,6.6875 z"
       id="path7624" />
    <path
       style="fill:#000000;fill-opacity:1;stroke:none"
       d="m 703.23973,-187.86295 1.78125,-6.65625 -7.65625,-1.59375 -1.78125,6.6875 z"
       id="path7622" />
    <path
       style="fill:#000000;fill-opacity:1;stroke:none"
       d="m 778.30223,-169.7067 1.8125,-6.65625 -7.65625,-1.5625 -1.8125,6.65625 z"
       id="path7620" />
    <path
       style="fill:#000000;fill-opacity:1;stroke:none"
       d="m 772.45848,-177.92545 1.78125,-6.6875 -7.65625,-1.5625 -1.78125,6.65625 z"
       id="path7618" />
    <path
       style="fill:#000000;fill-opacity:1;stroke:none"
       d="m 790.02098,-153.2067 -1.8125,6.6875 7.6875,1.5625 1.78125,-6.6875 z"
       id="path7616" />
    <path
       style="fill:#000000;fill-opacity:1;stroke:none"
       d="m 726.67723,-154.86295 -1.8125,6.65625 7.65625,1.59375 1.8125,-6.6875 z"
       id="path7614" />
    <path
       style="fill:#000000;fill-opacity:1;stroke:none"
       d="m 732.52098,-146.61295 -1.78125,6.65625 7.65625,1.5625 1.78125,-6.65625 z"
       id="path7612" />
    <path
       style="fill:#000000;fill-opacity:1;stroke:none"
       d="m 656.33348,-153.8942 -1.8125,6.6875 7.65625,1.5625 1.8125,-6.65625 z"
       id="path7610" />
    <path
       style="fill:#000000;fill-opacity:1;stroke:none"
       d="m 662.17723,-145.6442 -1.78125,6.6875 7.65625,1.5625 1.78125,-6.6875 z"
       id="path7608" />
    <path
       style="fill:#000000;fill-opacity:1;stroke:none"
       d="m 668.05223,-137.3942 -1.8125,6.6875 7.65625,1.5625 1.8125,-6.6875 z"
       id="path7606" />
    <path
       style="fill:#000000;fill-opacity:1;stroke:none"
       d="m 574.14598,-152.2067 -1.8125,6.6875 7.65625,1.5625 1.8125,-6.6875 z"
       id="path7604" />
    <path
       style="fill:#000000;fill-opacity:1;stroke:none"
       d="m 579.98973,-143.9567 -1.78125,6.65625 7.65625,1.59375 1.78125,-6.6875 z"
       id="path7602" />
    <path
       style="fill:#000000;fill-opacity:1;stroke:none"
       d="m 585.86473,-135.7067 -1.8125,6.65625 7.65625,1.5625 1.8125,-6.65625 z"
       id="path7600" />
    <path
       style="fill:#000000;fill-opacity:1;stroke:none"
       d="m 591.70848,-127.48795 -1.78125,6.6875 7.65625,1.5625 1.78125,-6.65625 z"
       id="path3765" />
    <path
       style="font-size:7px;font-style:normal;font-variant:normal;font-weight:normal;font-stretch:normal;line-height:125%;letter-spacing:0px;word-spacing:0px;fill:#000000;fill-opacity:1;stroke:none;font-family:Visitor TT1 BRK;-inkscape-font-specification:Visitor TT1 BRK"
       d="m 634.02847,-52.038592 9.42263,0 0,-5.014474 -9.42263,0 0,5.014474"
       id="path3769" />
    <path
       style="font-size:7px;font-style:normal;font-variant:normal;font-weight:normal;font-stretch:normal;line-height:125%;letter-spacing:0px;word-spacing:0px;fill:#000000;fill-opacity:1;stroke:none;font-family:Visitor TT1 BRK;-inkscape-font-specification:Visitor TT1 BRK"
       d="m 673.80223,-81.17545 1.625,0 9.40625,0 0,9.71875 0,9.6875 0,9.71875 9.40625,0 0,-8.8125 0,-8.78125 0,-8.8125 0,-8.8125 0,-8.78125 0,-8.8125 0,-8.8125 0,-8.8125 -5.65625,0 0,-2.40625 -9.125,0 -5.65625,0 0,14.53125 1.625,0 9.40625,0 0,7.3125 0,7.28125 -9.40625,0 -1.625,0 0,14.59375 z"
       id="path7518" />
    <path
       style="font-size:7px;font-style:normal;font-variant:normal;font-weight:normal;font-stretch:normal;line-height:125%;letter-spacing:0px;word-spacing:0px;fill:#000000;fill-opacity:1;stroke:none;font-family:Visitor TT1 BRK;-inkscape-font-specification:Visitor TT1 BRK"
       d="m 673.80223,-81.17545 0,-14.59375 -7.8125,0 -9.40625,0 0,-7.28125 0,-7.3125 9.40625,0 7.8125,0 0,-14.53125 -3.4375,0 -9.125,0 -9.125,0 0,2.40625 -4.96875,0 0,8.8125 0,8.8125 0,8.8125 0,8.78125 0,8.8125 0,8.8125 0,8.78125 0,8.8125 9.4375,0 0,-9.71875 0,-9.6875 0,-9.71875 9.40625,0 7.8125,0 z"
       id="path3771" />
    <path
       style="font-size:7px;font-style:normal;font-variant:normal;font-weight:normal;font-stretch:normal;line-height:125%;letter-spacing:0px;word-spacing:0px;fill:#000000;fill-opacity:1;stroke:none;font-family:Visitor TT1 BRK;-inkscape-font-specification:Visitor TT1 BRK"
       d="m 697.97529,-52.038592 9.42276,0 0,-5.014474 -9.42276,0 0,5.014474"
       id="path3773" />
    <path
       style="font-size:7px;font-style:normal;font-variant:normal;font-weight:normal;font-stretch:normal;line-height:125%;letter-spacing:0px;word-spacing:0px;fill:#000000;fill-opacity:1;stroke:none;font-family:Visitor TT1 BRK;-inkscape-font-specification:Visitor TT1 BRK"
       d="m 711.08348,-124.92545 0,9.125 0,9.09375 0,9.125 0,9.09375 0,9.125 0,9.09375 0,9.125 0,9.09375 9.4375,0 0,-8.71875 0,-8.75 0,-8.75 0,-8.75 0,-8.75 5.28125,0 4.125,0 0,4.34375 9.4375,0 0,-4.34375 3.0625,0 6.34375,0 0,8.75 0,8.75 0,8.75 0,8.75 0,8.71875 9.4375,0 0,-9.09375 0,-9.125 0,-9.09375 0,-9.125 0,-9.09375 0,-9.125 0,-9.09375 0,-9.125 -9.4375,0 0,7.28125 0,7.3125 -9.40625,0 0,2.90625 -5.25,0 -4.1875,0 0,-2.90625 -9.40625,0 0,-7.3125 0,-7.28125 -9.4375,0 z"
       id="path5458" />
    <path
       style="font-size:7px;font-style:normal;font-variant:normal;font-weight:normal;font-stretch:normal;line-height:125%;letter-spacing:0px;word-spacing:0px;fill:#000000;fill-opacity:1;stroke:none;font-family:Visitor TT1 BRK;-inkscape-font-specification:Visitor TT1 BRK"
       d="m 761.92224,-52.038592 9.42263,0 0,-5.697515 -9.42263,0 0,5.697515"
       id="path3777" />
    <path
       style="font-size:7px;font-style:normal;font-variant:normal;font-weight:normal;font-stretch:normal;line-height:125%;letter-spacing:0px;word-spacing:0px;fill:#000000;fill-opacity:1;stroke:none;font-family:Visitor TT1 BRK;-inkscape-font-specification:Visitor TT1 BRK"
       d="m 776.44802,-117.17666 5.17791,0 5.17791,0 0,9.90719 0,9.906294 0,9.906701 0,9.906804 0,9.907356 0,9.906208 -5.17791,0 -5.17791,0 0,5.697515 7.53296,0 7.53216,0 7.53293,0 7.53327,0 0,-5.697515 -5.17785,0 -5.17784,0 0,-9.907187 0,-9.906297 0,-9.906701 0,-9.906804 0,-9.907354 0,-9.90621 5.17784,0 5.17785,0 0,-7.74683 -7.53296,0 -7.53216,0 -7.53293,0 -7.53327,0 0,7.74683"
       id="path3779" />
    <path
       style="font-size:7px;font-style:normal;font-variant:normal;font-weight:normal;font-stretch:normal;line-height:125%;letter-spacing:0px;word-spacing:0px;fill:#000000;fill-opacity:1;stroke:none;font-family:Visitor TT1 BRK;-inkscape-font-specification:Visitor TT1 BRK"
       d="m 634.02847,-52.038592 9.42263,0 0,-5.014474 -9.42263,0 0,5.014474"
       id="path4893" />
    <path
       style="font-size:7px;font-style:normal;font-variant:normal;font-weight:normal;font-stretch:normal;line-height:125%;letter-spacing:0px;word-spacing:0px;fill:#000000;fill-opacity:1;stroke:none;font-family:Visitor TT1 BRK;-inkscape-font-specification:Visitor TT1 BRK"
       d="m 697.97529,-52.038592 9.42276,0 0,-5.014474 -9.42276,0 0,5.014474"
       id="path4897" />
    <path
       style="font-size:7px;font-style:normal;font-variant:normal;font-weight:normal;font-stretch:normal;line-height:125%;letter-spacing:0px;word-spacing:0px;fill:#000000;fill-opacity:1;stroke:none;font-family:Visitor TT1 BRK;-inkscape-font-specification:Visitor TT1 BRK"
       d="m 761.92224,-52.038592 9.42263,0 0,-5.697515 -9.42263,0 0,5.697515"
       id="path4901" />
    <path
       style="font-size:12px;font-style:normal;font-variant:normal;font-weight:normal;font-stretch:normal;line-height:125%;letter-spacing:0.1px;word-spacing:0px;fill:#000000;fill-opacity:1;stroke:none;font-family:'5x5 Pixel';-inkscape-font-specification:'5x5 Pixel'"
       d="m 537.3181,-12.216761 0,-6.966473 -3.48324,0 0,-1.741618 8.70809,0 0,1.741618 -3.48324,0 0,6.966473 -1.74161,0"
       id="path5090" />
    <path
       style="font-size:12px;font-style:normal;font-variant:normal;font-weight:normal;font-stretch:normal;line-height:125%;letter-spacing:0.1px;word-spacing:0px;fill:#000000;fill-opacity:1;stroke:none;font-family:'5x5 Pixel';-inkscape-font-specification:'5x5 Pixel'"
       d="m 544.40068,-12.216761 0,-8.708091 8.70809,0 0,1.741618 -6.96647,0 0,1.741618 5.22485,0 0,1.741619 -5.22485,0 0,1.741618 6.96647,0 0,1.741618 -8.70809,0"
       id="path5092" />
    <path
       style="font-size:12px;font-style:normal;font-variant:normal;font-weight:normal;font-stretch:normal;line-height:125%;letter-spacing:0.1px;word-spacing:0px;fill:#000000;fill-opacity:1;stroke:none;font-family:'5x5 Pixel';-inkscape-font-specification:'5x5 Pixel'"
       d="m 554.9665,-12.216761 0,-8.708091 1.74161,0 0,6.966473 5.22486,0 0,1.741618 -6.96647,0"
       id="path5094" />
    <path
       style="font-size:12px;font-style:normal;font-variant:normal;font-weight:normal;font-stretch:normal;line-height:125%;letter-spacing:0.1px;word-spacing:0px;fill:#000000;fill-opacity:1;stroke:none;font-family:'5x5 Pixel';-inkscape-font-specification:'5x5 Pixel'"
       d="m 568.64598,-15.7067 2.125,0 0,3.5 1.71875,0 0,-8.71875 -3.84375,0 0,1.75 2.125,0 0,1.71875 -2.125,0 0,1.75 z"
       id="path7483" />
    <path
       style="font-size:12px;font-style:normal;font-variant:normal;font-weight:normal;font-stretch:normal;line-height:125%;letter-spacing:0.1px;word-spacing:0px;fill:#000000;fill-opacity:1;stroke:none;font-family:'5x5 Pixel';-inkscape-font-specification:'5x5 Pixel'"
       d="m 568.64598,-15.7067 0,-1.75 -3.125,0 0,-1.71875 3.125,0 0,-1.75 -4.84375,0 0,8.71875 1.71875,0 0,-3.5 3.125,0 z"
       id="path5096" />
    <path
       style="font-size:12px;font-style:normal;font-variant:normal;font-weight:normal;font-stretch:normal;line-height:125%;letter-spacing:0.1px;word-spacing:0px;fill:#000000;fill-opacity:1;stroke:none;font-family:'5x5 Pixel';-inkscape-font-specification:'5x5 Pixel'"
       d="m 577.83975,-12.216761 0,-1.741618 1.74162,0 0,1.741618 -1.74162,0"
       id="path7686" />
    <path
       style="font-size:12px;font-style:normal;font-variant:normal;font-weight:normal;font-stretch:normal;line-height:125%;letter-spacing:0.1px;word-spacing:0px;fill:#000000;fill-opacity:1;stroke:none;font-family:'5x5 Pixel';-inkscape-font-specification:'5x5 Pixel'"
       d="m 576.09813,-13.958379 0,-3.483237 1.74162,0 0,3.483237 -1.74162,0"
       id="path7684" />
    <path
       style="font-size:12px;font-style:normal;font-variant:normal;font-weight:normal;font-stretch:normal;line-height:125%;letter-spacing:0.1px;word-spacing:0px;fill:#000000;fill-opacity:1;stroke:none;font-family:'5x5 Pixel';-inkscape-font-specification:'5x5 Pixel'"
       d="m 579.58137,-13.958379 0,-3.483237 1.74162,0 0,3.483237 -1.74162,0"
       id="path7682" />
    <path
       style="font-size:12px;font-style:normal;font-variant:normal;font-weight:normal;font-stretch:normal;line-height:125%;letter-spacing:0.1px;word-spacing:0px;fill:#000000;fill-opacity:1;stroke:none;font-family:'5x5 Pixel';-inkscape-font-specification:'5x5 Pixel'"
       d="m 574.35651,-17.441616 0,-3.483236 1.74162,0 0,3.483236 -1.74162,0"
       id="path7680" />
    <path
       style="font-size:12px;font-style:normal;font-variant:normal;font-weight:normal;font-stretch:normal;line-height:125%;letter-spacing:0.1px;word-spacing:0px;fill:#000000;fill-opacity:1;stroke:none;font-family:'5x5 Pixel';-inkscape-font-specification:'5x5 Pixel'"
       d="m 581.32299,-17.441616 0,-3.483236 1.74161,0 0,3.483236 -1.74161,0"
       id="path5098" />
    <path
       style="font-size:12px;font-style:normal;font-variant:normal;font-weight:normal;font-stretch:normal;line-height:125%;letter-spacing:0.1px;word-spacing:0px;fill:#000000;fill-opacity:1;stroke:none;font-family:'5x5 Pixel';-inkscape-font-specification:'5x5 Pixel'"
       d="m 584.92233,-12.216761 0,-1.741618 3.48324,0 0,-5.224855 -3.48324,0 0,-1.741618 8.70809,0 0,1.741618 -3.48323,0 0,5.224855 3.48323,0 0,1.741618 -8.70809,0"
       id="path5100" />
    <path
       style="font-size:12px;font-style:normal;font-variant:normal;font-weight:normal;font-stretch:normal;line-height:125%;letter-spacing:0.1px;word-spacing:0px;fill:#000000;fill-opacity:1;stroke:none;font-family:'5x5 Pixel';-inkscape-font-specification:'5x5 Pixel'"
       d="m 598.97139,-12.216761 0,-1.741618 1.74161,0 0,1.741618 -1.74161,0"
       id="path7698" />
    <path
       style="font-size:12px;font-style:normal;font-variant:normal;font-weight:normal;font-stretch:normal;line-height:125%;letter-spacing:0.1px;word-spacing:0px;fill:#000000;fill-opacity:1;stroke:none;font-family:'5x5 Pixel';-inkscape-font-specification:'5x5 Pixel'"
       d="m 597.22977,-13.958379 0,-3.483237 1.74162,0 0,3.483237 -1.74162,0"
       id="path7696" />
    <path
       style="font-size:12px;font-style:normal;font-variant:normal;font-weight:normal;font-stretch:normal;line-height:125%;letter-spacing:0.1px;word-spacing:0px;fill:#000000;fill-opacity:1;stroke:none;font-family:'5x5 Pixel';-inkscape-font-specification:'5x5 Pixel'"
       d="m 600.713,-13.958379 0,-3.483237 1.74162,0 0,3.483237 -1.74162,0"
       id="path7694" />
    <path
       style="font-size:12px;font-style:normal;font-variant:normal;font-weight:normal;font-stretch:normal;line-height:125%;letter-spacing:0.1px;word-spacing:0px;fill:#000000;fill-opacity:1;stroke:none;font-family:'5x5 Pixel';-inkscape-font-specification:'5x5 Pixel'"
       d="m 595.48815,-17.441616 0,-3.483236 1.74162,0 0,3.483236 -1.74162,0"
       id="path7692" />
    <path
       style="font-size:12px;font-style:normal;font-variant:normal;font-weight:normal;font-stretch:normal;line-height:125%;letter-spacing:0.1px;word-spacing:0px;fill:#000000;fill-opacity:1;stroke:none;font-family:'5x5 Pixel';-inkscape-font-specification:'5x5 Pixel'"
       d="m 602.45462,-17.441616 0,-3.483236 1.74162,0 0,3.483236 -1.74162,0"
       id="path5102" />
    <path
       style="font-size:12px;font-style:normal;font-variant:normal;font-weight:normal;font-stretch:normal;line-height:125%;letter-spacing:0.1px;word-spacing:0px;fill:#000000;fill-opacity:1;stroke:none;font-family:'5x5 Pixel';-inkscape-font-specification:'5x5 Pixel'"
       d="m 609.5372,-15.699997 0,-1.741619 1.74162,0 0,1.741619 -1.74162,0"
       id="path7704" />
    <path
       style="font-size:12px;font-style:normal;font-variant:normal;font-weight:normal;font-stretch:normal;line-height:125%;letter-spacing:0.1px;word-spacing:0px;fill:#000000;fill-opacity:1;stroke:none;font-family:'5x5 Pixel';-inkscape-font-specification:'5x5 Pixel'"
       d="m 606.05397,-12.216761 0,-8.708091 1.74162,0 0,1.741618 1.74161,0 0,1.741618 -1.74161,0 0,5.224855 -1.74162,0"
       id="path7702" />
    <path
       style="font-size:12px;font-style:normal;font-variant:normal;font-weight:normal;font-stretch:normal;line-height:125%;letter-spacing:0.1px;word-spacing:0px;fill:#000000;fill-opacity:1;stroke:none;font-family:'5x5 Pixel';-inkscape-font-specification:'5x5 Pixel'"
       d="m 613.02044,-12.216761 0,-5.224855 -1.74162,0 0,-1.741618 1.74162,0 0,-1.741618 1.74162,0 0,8.708091 -1.74162,0"
       id="path5104" />
    <path
       style="font-size:12px;font-style:normal;font-variant:normal;font-weight:normal;font-stretch:normal;line-height:125%;letter-spacing:0.1px;word-spacing:0px;fill:#000000;fill-opacity:1;stroke:none;font-family:'5x5 Pixel';-inkscape-font-specification:'5x5 Pixel'"
       d="m 620.48973,-15.7067 3.09375,0 0,3.5 1.75,0 0,-8.71875 -4.84375,0 0,1.75 3.09375,0 0,1.71875 -3.09375,0 0,1.75 z"
       id="path7486" />
    <path
       style="font-size:12px;font-style:normal;font-variant:normal;font-weight:normal;font-stretch:normal;line-height:125%;letter-spacing:0.1px;word-spacing:0px;fill:#000000;fill-opacity:1;stroke:none;font-family:'5x5 Pixel';-inkscape-font-specification:'5x5 Pixel'"
       d="m 620.48973,-15.7067 0,-1.75 -2.125,0 0,-1.71875 2.125,0 0,-1.75 -3.875,0 0,8.71875 1.75,0 0,-3.5 2.125,0 z"
       id="path5106" />
    <path
       style="font-size:12px;font-style:normal;font-variant:normal;font-weight:normal;font-stretch:normal;line-height:125%;letter-spacing:0.1px;word-spacing:0px;fill:#000000;fill-opacity:1;stroke:none;font-family:'5x5 Pixel';-inkscape-font-specification:'5x5 Pixel'"
       d="m 632.41046,-12.216761 0,-1.741618 1.74162,0 0,1.741618 -1.74162,0"
       id="path7718" />
    <path
       style="font-size:12px;font-style:normal;font-variant:normal;font-weight:normal;font-stretch:normal;line-height:125%;letter-spacing:0.1px;word-spacing:0px;fill:#000000;fill-opacity:1;stroke:none;font-family:'5x5 Pixel';-inkscape-font-specification:'5x5 Pixel'"
       d="m 630.66884,-13.958379 0,-1.741618 1.74162,0 0,1.741618 -1.74162,0"
       id="path7716" />
    <path
       style="font-size:12px;font-style:normal;font-variant:normal;font-weight:normal;font-stretch:normal;line-height:125%;letter-spacing:0.1px;word-spacing:0px;fill:#000000;fill-opacity:1;stroke:none;font-family:'5x5 Pixel';-inkscape-font-specification:'5x5 Pixel'"
       d="m 630.66884,-17.441616 0,-1.741618 1.74162,0 0,1.741618 -1.74162,0"
       id="path7714" />
    <path
       style="font-size:12px;font-style:normal;font-variant:normal;font-weight:normal;font-stretch:normal;line-height:125%;letter-spacing:0.1px;word-spacing:0px;fill:#000000;fill-opacity:1;stroke:none;font-family:'5x5 Pixel';-inkscape-font-specification:'5x5 Pixel'"
       d="m 627.1856,-12.216761 0,-8.708091 1.74162,0 0,3.483236 1.74162,0 0,1.741619 -1.74162,0 0,3.483236 -1.74162,0"
       id="path7712" />
    <path
       style="font-size:12px;font-style:normal;font-variant:normal;font-weight:normal;font-stretch:normal;line-height:125%;letter-spacing:0.1px;word-spacing:0px;fill:#000000;fill-opacity:1;stroke:none;font-family:'5x5 Pixel';-inkscape-font-specification:'5x5 Pixel'"
       d="m 632.41046,-19.183234 0,-1.741618 1.74162,0 0,1.741618 -1.74162,0"
       id="path5108" />
    <path
       style="font-size:12px;font-style:normal;font-variant:normal;font-weight:normal;font-stretch:normal;line-height:125%;letter-spacing:0.1px;word-spacing:0px;fill:#000000;fill-opacity:1;stroke:none;font-family:'5x5 Pixel';-inkscape-font-specification:'5x5 Pixel'"
       d="m 636.0098,-12.216761 0,-8.708091 8.70809,0 0,1.741618 -6.96647,0 0,1.741618 5.22486,0 0,1.741619 -5.22486,0 0,1.741618 6.96647,0 0,1.741618 -8.70809,0"
       id="path5110" />
    <path
       style="font-size:12px;font-style:normal;font-variant:normal;font-weight:normal;font-stretch:normal;line-height:125%;letter-spacing:0.1px;word-spacing:0px;fill:#000000;fill-opacity:1;stroke:none;font-family:'5x5 Pixel';-inkscape-font-specification:'5x5 Pixel'"
       d="m 653.55223,-13.9567 0,1.75 1.71875,0 0,-1.75 -1.71875,0 z"
       id="path7491" />
    <path
       style="font-size:12px;font-style:normal;font-variant:normal;font-weight:normal;font-stretch:normal;line-height:125%;letter-spacing:0.1px;word-spacing:0px;fill:#000000;fill-opacity:1;stroke:none;font-family:'5x5 Pixel';-inkscape-font-specification:'5x5 Pixel'"
       d="m 648.95848,-15.7067 2.84375,0 0,1.75 1.75,0 0,-1.75 1.71875,0 0,-5.21875 -6.3125,0 0,1.75 4.59375,0 0,1.71875 -4.59375,0 0,1.75 z"
       id="path7489" />
    <path
       style="font-size:12px;font-style:normal;font-variant:normal;font-weight:normal;font-stretch:normal;line-height:125%;letter-spacing:0.1px;word-spacing:0px;fill:#000000;fill-opacity:1;stroke:none;font-family:'5x5 Pixel';-inkscape-font-specification:'5x5 Pixel'"
       d="m 648.95848,-15.7067 0,-1.75 -0.65625,0 0,-1.71875 0.65625,0 0,-1.75 -2.375,0 0,8.71875 1.71875,0 0,-3.5 0.65625,0 z"
       id="path5112" />
    <path
       style="font-size:12px;font-style:normal;font-variant:normal;font-weight:normal;font-stretch:normal;line-height:125%;letter-spacing:0.1px;word-spacing:0px;fill:#000000;fill-opacity:1;stroke:none;font-family:'5x5 Pixel';-inkscape-font-specification:'5x5 Pixel'"
       d="m 657.14144,-12.216761 0,-1.741618 6.96647,0 0,-1.741618 -6.96647,0 0,-5.224855 8.70809,0 0,1.741618 -6.96647,0 0,1.741618 6.96647,0 0,5.224855 -8.70809,0"
       id="path5114" />
    <path
       style="font-size:12px;font-style:normal;font-variant:normal;font-weight:normal;font-stretch:normal;line-height:125%;letter-spacing:0.1px;word-spacing:0px;fill:#000000;fill-opacity:1;stroke:none;font-family:'5x5 Pixel';-inkscape-font-specification:'5x5 Pixel'"
       d="m 675.98973,-12.2067 4.375,0 0,-8.71875 -4.375,0 0,1.75 2.625,0 0,5.21875 -2.625,0 0,1.75 z"
       id="path7499" />
    <path
       style="font-size:12px;font-style:normal;font-variant:normal;font-weight:normal;font-stretch:normal;line-height:125%;letter-spacing:0.1px;word-spacing:0px;fill:#000000;fill-opacity:1;stroke:none;font-family:'5x5 Pixel';-inkscape-font-specification:'5x5 Pixel'"
       d="m 675.98973,-12.2067 0,-1.75 -2.59375,0 0,-5.21875 2.59375,0 0,-1.75 -4.34375,0 0,8.71875 4.34375,0 z"
       id="path5116" />
    <path
       style="font-size:12px;font-style:normal;font-variant:normal;font-weight:normal;font-stretch:normal;line-height:125%;letter-spacing:0.1px;word-spacing:0px;fill:#000000;fill-opacity:1;stroke:none;font-family:'5x5 Pixel';-inkscape-font-specification:'5x5 Pixel'"
       d="m 689.17723,-13.9567 0,1.75 1.75,0 0,-1.75 -1.75,0 z"
       id="path7496" />
    <path
       style="font-size:12px;font-style:normal;font-variant:normal;font-weight:normal;font-stretch:normal;line-height:125%;letter-spacing:0.1px;word-spacing:0px;fill:#000000;fill-opacity:1;stroke:none;font-family:'5x5 Pixel';-inkscape-font-specification:'5x5 Pixel'"
       d="m 686.20848,-15.7067 1.25,0 0,1.75 1.71875,0 0,-1.75 1.75,0 0,-5.21875 -4.71875,0 0,1.75 2.96875,0 0,1.71875 -2.96875,0 0,1.75 z"
       id="path7494" />
    <path
       style="font-size:12px;font-style:normal;font-variant:normal;font-weight:normal;font-stretch:normal;line-height:125%;letter-spacing:0.1px;word-spacing:0px;fill:#000000;fill-opacity:1;stroke:none;font-family:'5x5 Pixel';-inkscape-font-specification:'5x5 Pixel'"
       d="m 686.20848,-15.7067 0,-1.75 -2.25,0 0,-1.71875 2.25,0 0,-1.75 -4,0 0,8.71875 1.75,0 0,-3.5 2.25,0 z"
       id="path5118" />
    <path
       style="font-size:12px;font-style:normal;font-variant:normal;font-weight:normal;font-stretch:normal;line-height:125%;letter-spacing:0.1px;word-spacing:0px;fill:#000000;fill-opacity:1;stroke:none;font-family:'5x5 Pixel';-inkscape-font-specification:'5x5 Pixel'"
       d="m 692.78656,-12.216761 0,-8.708091 8.70809,0 0,1.741618 -6.96647,0 0,5.224855 5.22485,0 0,-1.741618 -3.48323,0 0,-1.741619 5.22485,0 0,5.224855 -8.70809,0"
       id="path5120" />
    <path
       style="font-size:10.89741707px;font-style:normal;font-variant:normal;font-weight:normal;font-stretch:normal;line-height:125%;letter-spacing:0px;word-spacing:0px;fill:#000000;fill-opacity:1;stroke:none;font-family:Notalot35;-inkscape-font-specification:Notalot35"
       d="m 668.19147,-12.542397 0,-1.581587 1.5816,0 0,1.581587 -1.5816,0"
       id="path5123" />
    <g
       style="font-size:32.91247177px;font-style:normal;font-variant:normal;font-weight:normal;font-stretch:normal;line-height:125%;letter-spacing:0px;word-spacing:0px;fill:#000000;fill-opacity:1;stroke:none;font-family:Notalot35;-inkscape-font-specification:Notalot35"
       id="text3933">
      <path
         d="m 854.24474,-1.2680289 0,-3.2944612 3.29446,0 0,3.2944612 z"
         style=""
         id="path6925" />
    </g>
  </g>
</svg>
