<?xml version="1.0" encoding="UTF-8" standalone="no"?>
<!-- Created with Inkscape (http://www.inkscape.org/) -->

<svg
   xmlns:dc="http://purl.org/dc/elements/1.1/"
   xmlns:cc="http://creativecommons.org/ns#"
   xmlns:rdf="http://www.w3.org/1999/02/22-rdf-syntax-ns#"
   xmlns:svg="http://www.w3.org/2000/svg"
   xmlns="http://www.w3.org/2000/svg"
   xmlns:sodipodi="http://sodipodi.sourceforge.net/DTD/sodipodi-0.dtd"
   xmlns:inkscape="http://www.inkscape.org/namespaces/inkscape"
   version="1.1"
   width="350"
   height="350"
   id="svg2"
   inkscape:version="0.91 r13725"
   sodipodi:docname="tami_logo_cut_via_svg2poly_tips_plainSVG_stamp.svg">
  <sodipodi:namedview
     pagecolor="#ffffff"
     bordercolor="#666666"
     borderopacity="1"
     objecttolerance="10"
     gridtolerance="10"
     guidetolerance="10"
     inkscape:pageopacity="0"
     inkscape:pageshadow="2"
     inkscape:window-width="1362"
     inkscape:window-height="729"
     id="namedview5651"
     showgrid="false"
     fit-margin-top="0"
     fit-margin-left="0"
     fit-margin-right="0"
     fit-margin-bottom="0"
     inkscape:zoom="1.6028571"
     inkscape:cx="175"
     inkscape:cy="168.90884"
     inkscape:window-x="0"
     inkscape:window-y="37"
     inkscape:window-maximized="0"
     inkscape:current-layer="g5689" />
  <defs
     id="defs4">
    <filter
       x="0"
       y="0"
       width="1"
       height="1"
       id="filter3557"
       style="color-interpolation-filters:sRGB">
      <feColorMatrix
         id="feColorMatrix3559"
         result="result14"
         type="luminanceToAlpha"
         in="SourceGraphic" />
      <feComposite
         in2="result14"
         operator="out"
         in="SourceGraphic"
         result="fbSourceGraphic"
         id="feComposite3561" />
      <feBlend
         in2="fbSourceGraphic"
         mode="normal"
         result="fbSourceGraphic"
         id="feBlend3563" />
      <feColorMatrix
         result="fbSourceGraphicAlpha"
         in="fbSourceGraphic"
         values="0 0 0 -1 0 0 0 0 -1 0 0 0 0 -1 0 0 0 0 1 0"
         id="feColorMatrix3937" />
      <feColorMatrix
         id="feColorMatrix3939"
         type="saturate"
         values="1"
         result="fbSourceGraphic"
         in="fbSourceGraphic" />
      <feColorMatrix
         id="feColorMatrix3941"
         in="fbSourceGraphic"
         values="-1 0 0 0 1 0 -1 0 0 1 0 0 -1 0 1 0 0 0 1 0 "
         result="fbSourceGraphic" />
      <feColorMatrix
         result="fbSourceGraphicAlpha"
         in="fbSourceGraphic"
         values="0 0 0 -1 0 0 0 0 -1 0 0 0 0 -1 0 0 0 0 1 0"
         id="feColorMatrix3943" />
      <feColorMatrix
         id="feColorMatrix3945"
         type="saturate"
         values="1"
         result="fbSourceGraphic"
         in="fbSourceGraphic" />
      <feColorMatrix
         id="feColorMatrix3947"
         in="fbSourceGraphic"
         values="-1 0 0 0 1 0 -1 0 0 1 0 0 -1 0 1 0 0 0 1 0 "
         result="fbSourceGraphic" />
      <feColorMatrix
         result="fbSourceGraphicAlpha"
         in="fbSourceGraphic"
         values="0 0 0 -1 0 0 0 0 -1 0 0 0 0 -1 0 0 0 0 1 0"
         id="feColorMatrix3949" />
      <feColorMatrix
         id="feColorMatrix3951"
         type="saturate"
         values="1"
         result="fbSourceGraphic"
         in="fbSourceGraphic" />
      <feColorMatrix
         id="feColorMatrix3953"
         in="fbSourceGraphic"
         values="-1 0 0 0 1 0 -1 0 0 1 0 0 -1 0 1 0 0 0 1 0 " />
    </filter>
  </defs>
  <metadata
     id="metadata7">
    <rdf:RDF>
      <cc:Work
         rdf:about="">
        <dc:format>image/svg+xml</dc:format>
        <dc:type
           rdf:resource="http://purl.org/dc/dcmitype/StillImage" />
        <dc:title></dc:title>
      </cc:Work>
    </rdf:RDF>
  </metadata>
  <g
     transform="translate(-531.33348,351.26803)"
     id="layer1">
    <g
       id="g5689"
       transform="matrix(1.1983129,0,0,1.1983129,-95.388098,-51.328081)">
      <g
         id="g5664"
         transform="translate(-3.6444583,21.622797)">
        <path
           d="m 667.95322,-32.505644 2.30287,0 0,-5.508444 0,-5.508443 -2.30287,0 0,4.407019 -6.90791,0 0,-4.407019 -2.30288,0 0,5.508443 0,5.508444 2.30288,0 0,-4.407026 6.90791,0 0,4.407026"
           id="path5067"
           style="font-style:normal;font-variant:normal;font-weight:normal;font-stretch:normal;font-size:31.83890915px;line-height:125%;font-family:'Visitor TT1 BRK';-inkscape-font-specification:'Visitor TT1 BRK';letter-spacing:0px;word-spacing:0px;fill:#000000;fill-opacity:1;stroke:none"
           inkscape:connector-curvature="0" />
        <path
           d="m 678.23973,-43.5192 -5.6875,0 0,5.5 0,5.5 2.3125,0 0,-4.40625 3.375,0 0,-2.1875 -3.375,0 0,-2.21875 3.375,0 0,-2.1875 z"
           id="path7502"
           style="font-style:normal;font-variant:normal;font-weight:normal;font-stretch:normal;font-size:31.83890915px;line-height:125%;font-family:'Visitor TT1 BRK';-inkscape-font-specification:'Visitor TT1 BRK';letter-spacing:0px;word-spacing:0px;fill:#000000;fill-opacity:1;stroke:none"
           inkscape:connector-curvature="0" />
        <path
           d="m 678.23973,-43.5192 0,2.1875 3.53125,0 0,2.21875 -3.53125,0 0,2.1875 3.53125,0 0,4.40625 2.28125,0 0,-5.5 0,-5.5 -5.75,0 -0.0625,0 z"
           id="path5069"
           style="font-style:normal;font-variant:normal;font-weight:normal;font-stretch:normal;font-size:31.83890915px;line-height:125%;font-family:'Visitor TT1 BRK';-inkscape-font-specification:'Visitor TT1 BRK';letter-spacing:0px;word-spacing:0px;fill:#000000;fill-opacity:1;stroke:none"
           inkscape:connector-curvature="0" />
        <path
           d="m 686.35723,-32.505644 5.75683,0 5.75683,0 0,-2.203513 -9.21079,0 0,-6.609861 9.21079,0 0,-2.203513 -5.75683,0 -5.75683,0 0,5.508443 0,5.508444"
           id="path5071"
           style="font-style:normal;font-variant:normal;font-weight:normal;font-stretch:normal;font-size:31.83890915px;line-height:125%;font-family:'Visitor TT1 BRK';-inkscape-font-specification:'Visitor TT1 BRK';letter-spacing:0px;word-spacing:0px;fill:#000000;fill-opacity:1;stroke:none"
           inkscape:connector-curvature="0" />
        <path
           d="m 707.07253,-34.709157 2.30288,0 0,2.203513 2.30287,0 0,-2.203513 -2.30287,0 0,-2.203513 -2.30288,0 0,-2.202842 -4.60504,0 0,-4.407019 -2.30287,0 0,5.508443 0,5.508444 2.30287,0 0,-4.407026 4.60504,0 0,2.203513"
           id="path7574"
           style="font-style:normal;font-variant:normal;font-weight:normal;font-stretch:normal;font-size:31.83890915px;line-height:125%;font-family:'Visitor TT1 BRK';-inkscape-font-specification:'Visitor TT1 BRK';letter-spacing:0px;word-spacing:0px;fill:#000000;fill-opacity:1;stroke:none"
           inkscape:connector-curvature="0" />
        <path
           d="m 709.37541,-39.115512 0,-2.203506 -2.30288,0 0,2.203506 2.30288,0"
           id="path7572"
           style="font-style:normal;font-variant:normal;font-weight:normal;font-stretch:normal;font-size:31.83890915px;line-height:125%;font-family:'Visitor TT1 BRK';-inkscape-font-specification:'Visitor TT1 BRK';letter-spacing:0px;word-spacing:0px;fill:#000000;fill-opacity:1;stroke:none"
           inkscape:connector-curvature="0" />
        <path
           d="m 709.37541,-41.319018 2.30287,0 0,-2.203513 -2.30287,0 0,2.203513"
           id="path5073"
           style="font-style:normal;font-variant:normal;font-weight:normal;font-stretch:normal;font-size:31.83890915px;line-height:125%;font-family:'Visitor TT1 BRK';-inkscape-font-specification:'Visitor TT1 BRK';letter-spacing:0px;word-spacing:0px;fill:#000000;fill-opacity:1;stroke:none"
           inkscape:connector-curvature="0" />
        <path
           d="m 713.97203,-32.505644 5.75682,0 5.75683,0 0,-2.203513 -9.21079,0 0,-2.203513 4.60505,0 0,-2.202842 -4.60505,0 0,-2.203506 9.21079,0 0,-2.203513 -5.75683,0 -5.75682,0 0,5.508443 0,5.508444"
           id="path5075"
           style="font-style:normal;font-variant:normal;font-weight:normal;font-stretch:normal;font-size:31.83890915px;line-height:125%;font-family:'Visitor TT1 BRK';-inkscape-font-specification:'Visitor TT1 BRK';letter-spacing:0px;word-spacing:0px;fill:#000000;fill-opacity:1;stroke:none"
           inkscape:connector-curvature="0" />
        <path
           d="m 736.98973,-34.7067 0,2.1875 2.3125,0 0,-2.1875 -2.3125,0 z"
           id="path7507"
           style="font-style:normal;font-variant:normal;font-weight:normal;font-stretch:normal;font-size:31.83890915px;line-height:125%;font-family:'Visitor TT1 BRK';-inkscape-font-specification:'Visitor TT1 BRK';letter-spacing:0px;word-spacing:0px;fill:#000000;fill-opacity:1;stroke:none"
           inkscape:connector-curvature="0" />
        <path
           d="m 732.52098,-36.92545 2.15625,0 0,2.21875 2.3125,0 0,-2.21875 2.3125,0 0,-6.59375 -5.78125,0 -1,0 0,2.1875 4.46875,0 0,2.21875 -4.46875,0 0,2.1875 z"
           id="path7505"
           style="font-style:normal;font-variant:normal;font-weight:normal;font-stretch:normal;font-size:31.83890915px;line-height:125%;font-family:'Visitor TT1 BRK';-inkscape-font-specification:'Visitor TT1 BRK';letter-spacing:0px;word-spacing:0px;fill:#000000;fill-opacity:1;stroke:none"
           inkscape:connector-curvature="0" />
        <path
           d="m 732.52098,-36.92545 0,-2.1875 -2.4375,0 0,-2.21875 2.4375,0 0,-2.1875 -4.75,0 0,5.5 0,5.5 2.3125,0 0,-4.40625 2.4375,0 z"
           id="path5077"
           style="font-style:normal;font-variant:normal;font-weight:normal;font-stretch:normal;font-size:31.83890915px;line-height:125%;font-family:'Visitor TT1 BRK';-inkscape-font-specification:'Visitor TT1 BRK';letter-spacing:0px;word-spacing:0px;fill:#000000;fill-opacity:1;stroke:none"
           inkscape:connector-curvature="0" />
        <path
           d="m 741.5868,-36.91267 9.21078,0 0,2.203513 -9.21078,0 0,2.203513 5.75682,0 5.75683,0 0,-6.609868 -9.21078,0 0,-2.203506 9.21078,0 0,-2.203513 -5.75683,0 -5.75682,0 0,6.609861"
           id="path5079"
           style="font-style:normal;font-variant:normal;font-weight:normal;font-stretch:normal;font-size:31.83890915px;line-height:125%;font-family:'Visitor TT1 BRK';-inkscape-font-specification:'Visitor TT1 BRK';letter-spacing:0px;word-spacing:0px;fill:#000000;fill-opacity:1;stroke:none"
           inkscape:connector-curvature="0" />
        <path
           d="m 761.48973,-43.5192 -0.34375,0 -5.75,0 0,5.5 0,5.5 2.3125,0 0,-4.40625 3.78125,0 0,-2.1875 -3.78125,0 0,-2.21875 3.78125,0 0,-2.1875 z"
           id="path7510"
           style="font-style:normal;font-variant:normal;font-weight:normal;font-stretch:normal;font-size:31.83890915px;line-height:125%;font-family:'Visitor TT1 BRK';-inkscape-font-specification:'Visitor TT1 BRK';letter-spacing:0px;word-spacing:0px;fill:#000000;fill-opacity:1;stroke:none"
           inkscape:connector-curvature="0" />
        <path
           d="m 761.48973,-43.5192 0,2.1875 3.125,0 0,2.21875 -3.125,0 0,2.1875 5.40625,0 0,-6.59375 -5.40625,0 z"
           id="path5081"
           style="font-style:normal;font-variant:normal;font-weight:normal;font-stretch:normal;font-size:31.83890915px;line-height:125%;font-family:'Visitor TT1 BRK';-inkscape-font-specification:'Visitor TT1 BRK';letter-spacing:0px;word-spacing:0px;fill:#000000;fill-opacity:1;stroke:none"
           inkscape:connector-curvature="0" />
        <path
           d="m 774.86473,-43.5192 -5.65625,0 0,5.5 0,5.5 2.28125,0 0,-4.40625 3.375,0 0,-2.1875 -3.375,0 0,-2.21875 3.375,0 0,-2.1875 z"
           id="path7513"
           style="font-style:normal;font-variant:normal;font-weight:normal;font-stretch:normal;font-size:31.83890915px;line-height:125%;font-family:'Visitor TT1 BRK';-inkscape-font-specification:'Visitor TT1 BRK';letter-spacing:0px;word-spacing:0px;fill:#000000;fill-opacity:1;stroke:none"
           inkscape:connector-curvature="0" />
        <path
           d="m 774.86473,-43.5192 0,2.1875 3.5625,0 0,2.21875 -3.5625,0 0,2.1875 3.5625,0 0,4.40625 2.28125,0 0,-5.5 0,-5.5 -5.75,0 -0.0937,0 z"
           id="path5083"
           style="font-style:normal;font-variant:normal;font-weight:normal;font-stretch:normal;font-size:31.83890915px;line-height:125%;font-family:'Visitor TT1 BRK';-inkscape-font-specification:'Visitor TT1 BRK';letter-spacing:0px;word-spacing:0px;fill:#000000;fill-opacity:1;stroke:none"
           inkscape:connector-curvature="0" />
        <path
           d="m 783.00899,-32.505644 5.75683,0 5.75683,0 0,-2.203513 -9.21079,0 0,-6.609861 9.21079,0 0,-2.203513 -5.75683,0 -5.75683,0 0,5.508443 0,5.508444"
           id="path5085"
           style="font-style:normal;font-variant:normal;font-weight:normal;font-stretch:normal;font-size:31.83890915px;line-height:125%;font-family:'Visitor TT1 BRK';-inkscape-font-specification:'Visitor TT1 BRK';letter-spacing:0px;word-spacing:0px;fill:#000000;fill-opacity:1;stroke:none"
           inkscape:connector-curvature="0" />
        <path
           d="m 796.81639,-32.505644 5.75683,0 5.75683,0 0,-2.203513 -9.21079,0 0,-2.203513 4.60504,0 0,-2.202842 -4.60504,0 0,-2.203506 9.21079,0 0,-2.203513 -5.75683,0 -5.75683,0 0,5.508443 0,5.508444"
           id="path5087"
           style="font-style:normal;font-variant:normal;font-weight:normal;font-stretch:normal;font-size:31.83890915px;line-height:125%;font-family:'Visitor TT1 BRK';-inkscape-font-specification:'Visitor TT1 BRK';letter-spacing:0px;word-spacing:0px;fill:#000000;fill-opacity:1;stroke:none"
           inkscape:connector-curvature="0" />
      </g>
      <path
         inkscape:connector-curvature="0"
         style="fill:#000000;fill-opacity:1;stroke:none"
         id="path7646"
         d="m 533.11473,-209.92545 -1.78125,6.65625 7.65625,1.59375 1.78125,-6.6875 z" />
      <path
         inkscape:connector-curvature="0"
         style="fill:#000000;fill-opacity:1;stroke:none"
         id="path7644"
         d="m 538.98973,-201.67545 -1.8125,6.65625 7.65625,1.59375 1.8125,-6.6875 z" />
      <path
         inkscape:connector-curvature="0"
         style="fill:#000000;fill-opacity:1;stroke:none"
         id="path7642"
         d="m 544.83348,-193.42545 -1.78125,6.65625 7.65625,1.5625 1.78125,-6.65625 z" />
      <path
         inkscape:connector-curvature="0"
         style="fill:#000000;fill-opacity:1;stroke:none"
         id="path7640"
         d="m 550.70848,-185.2067 -1.8125,6.6875 7.65625,1.5625 1.8125,-6.65625 z" />
      <path
         inkscape:connector-curvature="0"
         style="fill:#000000;fill-opacity:1;stroke:none"
         id="path7638"
         d="m 556.55223,-176.9567 -1.78125,6.6875 7.65625,1.5625 1.78125,-6.6875 z" />
      <path
         inkscape:connector-curvature="0"
         style="fill:#000000;fill-opacity:1;stroke:none"
         id="path7636"
         d="m 562.42723,-168.7067 -1.0625,3.90625 -8.46875,0.0625 0.8125,6.53125 3.5625,5.625 9.84375,-0.3125 3.125,-0.0937 3.90625,0.78125 0.25,-0.9375 2.59375,-0.0937 9.84375,-0.3125 9.84375,-0.3125 9.84375,-0.3125 5,-0.15625 -0.0937,5.21875 -0.15625,9.375 -0.15625,9.375 -0.15625,9.375 -0.15625,9.375 -0.15625,9.375 -0.15625,9.375 -0.15625,9.375 -0.15625,9.375 -0.15625,9.375 -0.39964,12.59193 5.71875,0.15625 5.65625,-0.375 0.27464,-12.65443 0.0625,-9.46875 0.0625,-9.4375 0.0312,-9.46875 0.0625,-9.4375 0.0625,-9.4375 0.0312,-9.46875 0.0625,-9.4375 0.0625,-9.46875 0.0312,-9.4375 0.0312,-4.5625 4.46875,-0.15625 9.84375,-0.3125 9.84375,-0.3125 2.75,-0.0937 0,0.0625 7.65625,1.5625 0.5,-1.875 8.8125,-0.28125 9.84375,-0.3125 9.875,-0.34375 9.84375,-0.3125 9.84375,-0.3125 9.84375,-0.3125 4.5,-0.15625 -0.375,1.375 7.65625,1.5625 0.84375,-3.1875 7.09375,-0.21875 9.84375,-0.3125 9.84375,-0.3125 9.875,-0.3125 9.84375,-0.3125 9.71875,-0.3125 -1.375,5.0625 7.65625,1.5625 1.8125,-6.65625 -1.03125,-0.21875 2.9064,-0.0937 9.875,-0.3125 -0.65625,-6.21875 -9.625,0.0625 -7.75,0.0625 0.40625,-1.53125 -7.65625,-1.59375 -0.84375,3.1875 -3.40625,0.0312 -9.59375,0.0937 -9.625,0.0625 -9.625,0.0937 -9.625,0.0625 -9.59375,0.0625 -4.375,0.0312 1,-3.71875 -7.65625,-1.5625 -1.46875,5.375 -6.75,0.0312 -9.59375,0.0937 -9.625,0.0625 -9.625,0.0625 -9.625,0.0937 -9.59375,0.0625 -7.3125,0.0625 0.90625,-3.28125 -7.65625,-1.5625 -1.34375,4.90625 -3.84375,0.0312 -9.625,0.0937 -7.96875,0.0625 0.0312,-3.71875 -5.0625,0.5625 -5.0625,0.5625 -0.0312,2.65625 -1.125,0 -9.625,0.0937 -9.59375,0.0625 -9.625,0.0937 -9.625,0.0625 -2.65625,0.0312 0.625,-2.28125 z" />
      <path
         inkscape:connector-curvature="0"
         style="fill:#000000;fill-opacity:1;stroke:none"
         id="path7634"
         d="m 644.61473,-170.36295 1.78125,-6.6875 -7.65625,-1.5625 -1.78125,6.6875 z" />
      <path
         inkscape:connector-curvature="0"
         style="fill:#000000;fill-opacity:1;stroke:none"
         id="path7632"
         d="m 638.73973,-178.61295 1.8125,-6.6875 -7.65625,-1.5625 -1.8125,6.6875 z" />
      <path
         inkscape:connector-curvature="0"
         style="fill:#000000;fill-opacity:1;stroke:none"
         id="path7630"
         d="m 632.89598,-186.86295 1.78125,-6.6875 -7.65625,-1.5625 -1.78125,6.6875 z" />
      <path
         inkscape:connector-curvature="0"
         style="fill:#000000;fill-opacity:1;stroke:none"
         id="path7628"
         d="m 627.02098,-195.11295 1.8125,-6.6875 -7.65625,-1.5625 -1.8125,6.6875 z" />
      <path
         inkscape:connector-curvature="0"
         style="fill:#000000;fill-opacity:1;stroke:none"
         id="path7626"
         d="m 714.95848,-171.36295 1.78125,-6.6875 -7.65625,-1.5625 -1.78125,6.6875 z" />
      <path
         inkscape:connector-curvature="0"
         style="fill:#000000;fill-opacity:1;stroke:none"
         id="path7624"
         d="m 709.08348,-179.61295 1.8125,-6.65625 -7.65625,-1.59375 -1.8125,6.6875 z" />
      <path
         inkscape:connector-curvature="0"
         style="fill:#000000;fill-opacity:1;stroke:none"
         id="path7622"
         d="m 703.23973,-187.86295 1.78125,-6.65625 -7.65625,-1.59375 -1.78125,6.6875 z" />
      <path
         inkscape:connector-curvature="0"
         style="fill:#000000;fill-opacity:1;stroke:none"
         id="path7620"
         d="m 778.30223,-169.7067 1.8125,-6.65625 -7.65625,-1.5625 -1.8125,6.65625 z" />
      <path
         inkscape:connector-curvature="0"
         style="fill:#000000;fill-opacity:1;stroke:none"
         id="path7618"
         d="m 772.45848,-177.92545 1.78125,-6.6875 -7.65625,-1.5625 -1.78125,6.65625 z" />
      <path
         inkscape:connector-curvature="0"
         style="fill:#000000;fill-opacity:1;stroke:none"
         id="path7616"
         d="m 790.02098,-153.2067 -1.8125,6.6875 7.6875,1.5625 1.78125,-6.6875 z" />
      <path
         inkscape:connector-curvature="0"
         style="fill:#000000;fill-opacity:1;stroke:none"
         id="path7614"
         d="m 726.67723,-154.86295 -1.8125,6.65625 7.65625,1.59375 1.8125,-6.6875 z" />
      <path
         inkscape:connector-curvature="0"
         style="fill:#000000;fill-opacity:1;stroke:none"
         id="path7612"
         d="m 732.52098,-146.61295 -1.78125,6.65625 7.65625,1.5625 1.78125,-6.65625 z" />
      <path
         inkscape:connector-curvature="0"
         style="fill:#000000;fill-opacity:1;stroke:none"
         id="path7610"
         d="m 656.33348,-153.8942 -1.8125,6.6875 7.65625,1.5625 1.8125,-6.65625 z" />
      <path
         inkscape:connector-curvature="0"
         style="fill:#000000;fill-opacity:1;stroke:none"
         id="path7608"
         d="m 662.17723,-145.6442 -1.78125,6.6875 7.65625,1.5625 1.78125,-6.6875 z" />
      <path
         inkscape:connector-curvature="0"
         style="fill:#000000;fill-opacity:1;stroke:none"
         id="path7606"
         d="m 668.05223,-137.3942 -1.8125,6.6875 7.65625,1.5625 1.8125,-6.6875 z" />
      <path
         inkscape:connector-curvature="0"
         style="fill:#000000;fill-opacity:1;stroke:none"
         id="path7604"
         d="m 574.14598,-152.2067 -1.8125,6.6875 7.65625,1.5625 1.8125,-6.6875 z" />
      <path
         inkscape:connector-curvature="0"
         style="fill:#000000;fill-opacity:1;stroke:none"
         id="path7602"
         d="m 579.98973,-143.9567 -1.78125,6.65625 7.65625,1.59375 1.78125,-6.6875 z" />
      <path
         inkscape:connector-curvature="0"
         style="fill:#000000;fill-opacity:1;stroke:none"
         id="path7600"
         d="m 585.86473,-135.7067 -1.8125,6.65625 7.65625,1.5625 1.8125,-6.65625 z" />
      <path
         inkscape:connector-curvature="0"
         style="fill:#000000;fill-opacity:1;stroke:none"
         id="path3765"
         d="m 591.70848,-127.48795 -1.78125,6.6875 7.65625,1.5625 1.78125,-6.65625 z" />
      <path
         inkscape:connector-curvature="0"
         style="font-style:normal;font-variant:normal;font-weight:normal;font-stretch:normal;font-size:7px;line-height:125%;font-family:'Visitor TT1 BRK';-inkscape-font-specification:'Visitor TT1 BRK';letter-spacing:0px;word-spacing:0px;fill:#000000;fill-opacity:1;stroke:none"
         id="path3769"
         d="m 634.02847,-52.038592 9.42263,0 0,-5.014474 -9.42263,0 0,5.014474" />
      <path
         inkscape:connector-curvature="0"
         style="font-style:normal;font-variant:normal;font-weight:normal;font-stretch:normal;font-size:7px;line-height:125%;font-family:'Visitor TT1 BRK';-inkscape-font-specification:'Visitor TT1 BRK';letter-spacing:0px;word-spacing:0px;fill:#000000;fill-opacity:1;stroke:none"
         id="path7518"
         d="m 673.80223,-81.17545 1.625,0 9.40625,0 0,9.71875 0,9.6875 0,9.71875 9.40625,0 0,-8.8125 0,-8.78125 0,-8.8125 0,-8.8125 0,-8.78125 0,-8.8125 0,-8.8125 0,-8.8125 -5.65625,0 0,-2.40625 -9.125,0 -5.65625,0 0,14.53125 1.625,0 9.40625,0 0,7.3125 0,7.28125 -9.40625,0 -1.625,0 0,14.59375 z" />
      <path
         inkscape:connector-curvature="0"
         style="font-style:normal;font-variant:normal;font-weight:normal;font-stretch:normal;font-size:7px;line-height:125%;font-family:'Visitor TT1 BRK';-inkscape-font-specification:'Visitor TT1 BRK';letter-spacing:0px;word-spacing:0px;fill:#000000;fill-opacity:1;stroke:none"
         id="path3771"
         d="m 673.80223,-81.17545 0,-14.59375 -7.8125,0 -9.40625,0 0,-7.28125 0,-7.3125 9.40625,0 7.8125,0 0,-14.53125 -3.4375,0 -9.125,0 -9.125,0 0,2.40625 -4.96875,0 0,8.8125 0,8.8125 0,8.8125 0,8.78125 0,8.8125 0,8.8125 0,8.78125 0,8.8125 9.4375,0 0,-9.71875 0,-9.6875 0,-9.71875 9.40625,0 7.8125,0 z" />
      <path
         inkscape:connector-curvature="0"
         style="font-style:normal;font-variant:normal;font-weight:normal;font-stretch:normal;font-size:7px;line-height:125%;font-family:'Visitor TT1 BRK';-inkscape-font-specification:'Visitor TT1 BRK';letter-spacing:0px;word-spacing:0px;fill:#000000;fill-opacity:1;stroke:none"
         id="path3773"
         d="m 697.97529,-52.038592 9.42276,0 0,-5.014474 -9.42276,0 0,5.014474" />
      <path
         inkscape:connector-curvature="0"
         style="font-style:normal;font-variant:normal;font-weight:normal;font-stretch:normal;font-size:7px;line-height:125%;font-family:'Visitor TT1 BRK';-inkscape-font-specification:'Visitor TT1 BRK';letter-spacing:0px;word-spacing:0px;fill:#000000;fill-opacity:1;stroke:none"
         id="path5458"
         d="m 711.08348,-124.92545 0,9.125 0,9.09375 0,9.125 0,9.09375 0,9.125 0,9.09375 0,9.125 0,9.09375 9.4375,0 0,-8.71875 0,-8.75 0,-8.75 0,-8.75 0,-8.75 5.28125,0 4.125,0 0,4.34375 9.4375,0 0,-4.34375 3.0625,0 6.34375,0 0,8.75 0,8.75 0,8.75 0,8.75 0,8.71875 9.4375,0 0,-9.09375 0,-9.125 0,-9.09375 0,-9.125 0,-9.09375 0,-9.125 0,-9.09375 0,-9.125 -9.4375,0 0,7.28125 0,7.3125 -9.40625,0 0,2.90625 -5.25,0 -4.1875,0 0,-2.90625 -9.40625,0 0,-7.3125 0,-7.28125 -9.4375,0 z" />
      <path
         inkscape:connector-curvature="0"
         style="font-style:normal;font-variant:normal;font-weight:normal;font-stretch:normal;font-size:7px;line-height:125%;font-family:'Visitor TT1 BRK';-inkscape-font-specification:'Visitor TT1 BRK';letter-spacing:0px;word-spacing:0px;fill:#000000;fill-opacity:1;stroke:none"
         id="path3777"
         d="m 761.92224,-52.038592 9.42263,0 0,-5.697515 -9.42263,0 0,5.697515" />
      <path
         inkscape:connector-curvature="0"
         style="font-style:normal;font-variant:normal;font-weight:normal;font-stretch:normal;font-size:7px;line-height:125%;font-family:'Visitor TT1 BRK';-inkscape-font-specification:'Visitor TT1 BRK';letter-spacing:0px;word-spacing:0px;fill:#000000;fill-opacity:1;stroke:none"
         id="path3779"
         d="m 776.44802,-117.17666 5.17791,0 5.17791,0 0,9.90719 0,9.906294 0,9.906701 0,9.906804 0,9.907356 0,9.906208 -5.17791,0 -5.17791,0 0,5.697515 7.53296,0 7.53216,0 7.53293,0 7.53327,0 0,-5.697515 -5.17785,0 -5.17784,0 0,-9.907187 0,-9.906297 0,-9.906701 0,-9.906804 0,-9.907354 0,-9.90621 5.17784,0 5.17785,0 0,-7.74683 -7.53296,0 -7.53216,0 -7.53293,0 -7.53327,0 0,7.74683" />
      <path
         inkscape:connector-curvature="0"
         style="font-style:normal;font-variant:normal;font-weight:normal;font-stretch:normal;font-size:7px;line-height:125%;font-family:'Visitor TT1 BRK';-inkscape-font-specification:'Visitor TT1 BRK';letter-spacing:0px;word-spacing:0px;fill:#000000;fill-opacity:1;stroke:none"
         id="path4893"
         d="m 634.02847,-52.038592 9.42263,0 0,-5.014474 -9.42263,0 0,5.014474" />
      <path
         inkscape:connector-curvature="0"
         style="font-style:normal;font-variant:normal;font-weight:normal;font-stretch:normal;font-size:7px;line-height:125%;font-family:'Visitor TT1 BRK';-inkscape-font-specification:'Visitor TT1 BRK';letter-spacing:0px;word-spacing:0px;fill:#000000;fill-opacity:1;stroke:none"
         id="path4897"
         d="m 697.97529,-52.038592 9.42276,0 0,-5.014474 -9.42276,0 0,5.014474" />
      <path
         inkscape:connector-curvature="0"
         style="font-style:normal;font-variant:normal;font-weight:normal;font-stretch:normal;font-size:7px;line-height:125%;font-family:'Visitor TT1 BRK';-inkscape-font-specification:'Visitor TT1 BRK';letter-spacing:0px;word-spacing:0px;fill:#000000;fill-opacity:1;stroke:none"
         id="path4901"
         d="m 761.92224,-52.038592 9.42263,0 0,-5.697515 -9.42263,0 0,5.697515" />
      <g
         id="g5797"
         transform="matrix(1.5216934,0,0,1.5216934,-262.4863,-10.780503)">
        <path
           d="m 537.3181,-12.216761 0,-6.966473 -3.48324,0 0,-1.741618 8.70809,0 0,1.741618 -3.48324,0 0,6.966473 -1.74161,0"
           id="path5090"
           style="font-style:normal;font-variant:normal;font-weight:normal;font-stretch:normal;font-size:12px;line-height:125%;font-family:'5x5 Pixel';-inkscape-font-specification:'5x5 Pixel';letter-spacing:0.1px;word-spacing:0px;fill:#000000;fill-opacity:1;stroke:none"
           inkscape:connector-curvature="0" />
        <path
           d="m 544.40068,-12.216761 0,-8.708091 8.70809,0 0,1.741618 -6.96647,0 0,1.741618 5.22485,0 0,1.741619 -5.22485,0 0,1.741618 6.96647,0 0,1.741618 -8.70809,0"
           id="path5092"
           style="font-style:normal;font-variant:normal;font-weight:normal;font-stretch:normal;font-size:12px;line-height:125%;font-family:'5x5 Pixel';-inkscape-font-specification:'5x5 Pixel';letter-spacing:0.1px;word-spacing:0px;fill:#000000;fill-opacity:1;stroke:none"
           inkscape:connector-curvature="0" />
        <path
           d="m 554.9665,-12.216761 0,-8.708091 1.74161,0 0,6.966473 5.22486,0 0,1.741618 -6.96647,0"
           id="path5094"
           style="font-style:normal;font-variant:normal;font-weight:normal;font-stretch:normal;font-size:12px;line-height:125%;font-family:'5x5 Pixel';-inkscape-font-specification:'5x5 Pixel';letter-spacing:0.1px;word-spacing:0px;fill:#000000;fill-opacity:1;stroke:none"
           inkscape:connector-curvature="0" />
        <path
           d="m 568.64598,-15.7067 2.125,0 0,3.5 1.71875,0 0,-8.71875 -3.84375,0 0,1.75 2.125,0 0,1.71875 -2.125,0 0,1.75 z"
           id="path7483"
           style="font-style:normal;font-variant:normal;font-weight:normal;font-stretch:normal;font-size:12px;line-height:125%;font-family:'5x5 Pixel';-inkscape-font-specification:'5x5 Pixel';letter-spacing:0.1px;word-spacing:0px;fill:#000000;fill-opacity:1;stroke:none"
           inkscape:connector-curvature="0" />
        <path
           d="m 568.64598,-15.7067 0,-1.75 -3.125,0 0,-1.71875 3.125,0 0,-1.75 -4.84375,0 0,8.71875 1.71875,0 0,-3.5 3.125,0 z"
           id="path5096"
           style="font-style:normal;font-variant:normal;font-weight:normal;font-stretch:normal;font-size:12px;line-height:125%;font-family:'5x5 Pixel';-inkscape-font-specification:'5x5 Pixel';letter-spacing:0.1px;word-spacing:0px;fill:#000000;fill-opacity:1;stroke:none"
           inkscape:connector-curvature="0" />
        <path
           d="m 577.83975,-12.216761 0,-1.741618 1.74162,0 0,1.741618 -1.74162,0"
           id="path7686"
           style="font-style:normal;font-variant:normal;font-weight:normal;font-stretch:normal;font-size:12px;line-height:125%;font-family:'5x5 Pixel';-inkscape-font-specification:'5x5 Pixel';letter-spacing:0.1px;word-spacing:0px;fill:#000000;fill-opacity:1;stroke:none"
           inkscape:connector-curvature="0" />
        <path
           d="m 576.09813,-13.958379 0,-3.483237 1.74162,0 0,3.483237 -1.74162,0"
           id="path7684"
           style="font-style:normal;font-variant:normal;font-weight:normal;font-stretch:normal;font-size:12px;line-height:125%;font-family:'5x5 Pixel';-inkscape-font-specification:'5x5 Pixel';letter-spacing:0.1px;word-spacing:0px;fill:#000000;fill-opacity:1;stroke:none"
           inkscape:connector-curvature="0" />
        <path
           d="m 579.58137,-13.958379 0,-3.483237 1.74162,0 0,3.483237 -1.74162,0"
           id="path7682"
           style="font-style:normal;font-variant:normal;font-weight:normal;font-stretch:normal;font-size:12px;line-height:125%;font-family:'5x5 Pixel';-inkscape-font-specification:'5x5 Pixel';letter-spacing:0.1px;word-spacing:0px;fill:#000000;fill-opacity:1;stroke:none"
           inkscape:connector-curvature="0" />
        <path
           d="m 574.35651,-17.441616 0,-3.483236 1.74162,0 0,3.483236 -1.74162,0"
           id="path7680"
           style="font-style:normal;font-variant:normal;font-weight:normal;font-stretch:normal;font-size:12px;line-height:125%;font-family:'5x5 Pixel';-inkscape-font-specification:'5x5 Pixel';letter-spacing:0.1px;word-spacing:0px;fill:#000000;fill-opacity:1;stroke:none"
           inkscape:connector-curvature="0" />
        <path
           d="m 581.32299,-17.441616 0,-3.483236 1.74161,0 0,3.483236 -1.74161,0"
           id="path5098"
           style="font-style:normal;font-variant:normal;font-weight:normal;font-stretch:normal;font-size:12px;line-height:125%;font-family:'5x5 Pixel';-inkscape-font-specification:'5x5 Pixel';letter-spacing:0.1px;word-spacing:0px;fill:#000000;fill-opacity:1;stroke:none"
           inkscape:connector-curvature="0" />
        <path
           d="m 584.92233,-12.216761 0,-1.741618 3.48324,0 0,-5.224855 -3.48324,0 0,-1.741618 8.70809,0 0,1.741618 -3.48323,0 0,5.224855 3.48323,0 0,1.741618 -8.70809,0"
           id="path5100"
           style="font-style:normal;font-variant:normal;font-weight:normal;font-stretch:normal;font-size:12px;line-height:125%;font-family:'5x5 Pixel';-inkscape-font-specification:'5x5 Pixel';letter-spacing:0.1px;word-spacing:0px;fill:#000000;fill-opacity:1;stroke:none"
           inkscape:connector-curvature="0" />
        <path
           d="m 598.97139,-12.216761 0,-1.741618 1.74161,0 0,1.741618 -1.74161,0"
           id="path7698"
           style="font-style:normal;font-variant:normal;font-weight:normal;font-stretch:normal;font-size:12px;line-height:125%;font-family:'5x5 Pixel';-inkscape-font-specification:'5x5 Pixel';letter-spacing:0.1px;word-spacing:0px;fill:#000000;fill-opacity:1;stroke:none"
           inkscape:connector-curvature="0" />
        <path
           d="m 597.22977,-13.958379 0,-3.483237 1.74162,0 0,3.483237 -1.74162,0"
           id="path7696"
           style="font-style:normal;font-variant:normal;font-weight:normal;font-stretch:normal;font-size:12px;line-height:125%;font-family:'5x5 Pixel';-inkscape-font-specification:'5x5 Pixel';letter-spacing:0.1px;word-spacing:0px;fill:#000000;fill-opacity:1;stroke:none"
           inkscape:connector-curvature="0" />
        <path
           d="m 600.713,-13.958379 0,-3.483237 1.74162,0 0,3.483237 -1.74162,0"
           id="path7694"
           style="font-style:normal;font-variant:normal;font-weight:normal;font-stretch:normal;font-size:12px;line-height:125%;font-family:'5x5 Pixel';-inkscape-font-specification:'5x5 Pixel';letter-spacing:0.1px;word-spacing:0px;fill:#000000;fill-opacity:1;stroke:none"
           inkscape:connector-curvature="0" />
        <path
           d="m 595.48815,-17.441616 0,-3.483236 1.74162,0 0,3.483236 -1.74162,0"
           id="path7692"
           style="font-style:normal;font-variant:normal;font-weight:normal;font-stretch:normal;font-size:12px;line-height:125%;font-family:'5x5 Pixel';-inkscape-font-specification:'5x5 Pixel';letter-spacing:0.1px;word-spacing:0px;fill:#000000;fill-opacity:1;stroke:none"
           inkscape:connector-curvature="0" />
        <path
           d="m 602.45462,-17.441616 0,-3.483236 1.74162,0 0,3.483236 -1.74162,0"
           id="path5102"
           style="font-style:normal;font-variant:normal;font-weight:normal;font-stretch:normal;font-size:12px;line-height:125%;font-family:'5x5 Pixel';-inkscape-font-specification:'5x5 Pixel';letter-spacing:0.1px;word-spacing:0px;fill:#000000;fill-opacity:1;stroke:none"
           inkscape:connector-curvature="0" />
        <path
           d="m 609.5372,-15.699997 0,-1.741619 1.74162,0 0,1.741619 -1.74162,0"
           id="path7704"
           style="font-style:normal;font-variant:normal;font-weight:normal;font-stretch:normal;font-size:12px;line-height:125%;font-family:'5x5 Pixel';-inkscape-font-specification:'5x5 Pixel';letter-spacing:0.1px;word-spacing:0px;fill:#000000;fill-opacity:1;stroke:none"
           inkscape:connector-curvature="0" />
        <path
           d="m 606.05397,-12.216761 0,-8.708091 1.74162,0 0,1.741618 1.74161,0 0,1.741618 -1.74161,0 0,5.224855 -1.74162,0"
           id="path7702"
           style="font-style:normal;font-variant:normal;font-weight:normal;font-stretch:normal;font-size:12px;line-height:125%;font-family:'5x5 Pixel';-inkscape-font-specification:'5x5 Pixel';letter-spacing:0.1px;word-spacing:0px;fill:#000000;fill-opacity:1;stroke:none"
           inkscape:connector-curvature="0" />
        <path
           d="m 613.02044,-12.216761 0,-5.224855 -1.74162,0 0,-1.741618 1.74162,0 0,-1.741618 1.74162,0 0,8.708091 -1.74162,0"
           id="path5104"
           style="font-style:normal;font-variant:normal;font-weight:normal;font-stretch:normal;font-size:12px;line-height:125%;font-family:'5x5 Pixel';-inkscape-font-specification:'5x5 Pixel';letter-spacing:0.1px;word-spacing:0px;fill:#000000;fill-opacity:1;stroke:none"
           inkscape:connector-curvature="0" />
        <path
           d="m 620.48973,-15.7067 3.09375,0 0,3.5 1.75,0 0,-8.71875 -4.84375,0 0,1.75 3.09375,0 0,1.71875 -3.09375,0 0,1.75 z"
           id="path7486"
           style="font-style:normal;font-variant:normal;font-weight:normal;font-stretch:normal;font-size:12px;line-height:125%;font-family:'5x5 Pixel';-inkscape-font-specification:'5x5 Pixel';letter-spacing:0.1px;word-spacing:0px;fill:#000000;fill-opacity:1;stroke:none"
           inkscape:connector-curvature="0" />
        <path
           d="m 620.48973,-15.7067 0,-1.75 -2.125,0 0,-1.71875 2.125,0 0,-1.75 -3.875,0 0,8.71875 1.75,0 0,-3.5 2.125,0 z"
           id="path5106"
           style="font-style:normal;font-variant:normal;font-weight:normal;font-stretch:normal;font-size:12px;line-height:125%;font-family:'5x5 Pixel';-inkscape-font-specification:'5x5 Pixel';letter-spacing:0.1px;word-spacing:0px;fill:#000000;fill-opacity:1;stroke:none"
           inkscape:connector-curvature="0" />
        <path
           d="m 632.41046,-12.216761 0,-1.741618 1.74162,0 0,1.741618 -1.74162,0"
           id="path7718"
           style="font-style:normal;font-variant:normal;font-weight:normal;font-stretch:normal;font-size:12px;line-height:125%;font-family:'5x5 Pixel';-inkscape-font-specification:'5x5 Pixel';letter-spacing:0.1px;word-spacing:0px;fill:#000000;fill-opacity:1;stroke:none"
           inkscape:connector-curvature="0" />
        <path
           d="m 630.66884,-13.958379 0,-1.741618 1.74162,0 0,1.741618 -1.74162,0"
           id="path7716"
           style="font-style:normal;font-variant:normal;font-weight:normal;font-stretch:normal;font-size:12px;line-height:125%;font-family:'5x5 Pixel';-inkscape-font-specification:'5x5 Pixel';letter-spacing:0.1px;word-spacing:0px;fill:#000000;fill-opacity:1;stroke:none"
           inkscape:connector-curvature="0" />
        <path
           d="m 630.66884,-17.441616 0,-1.741618 1.74162,0 0,1.741618 -1.74162,0"
           id="path7714"
           style="font-style:normal;font-variant:normal;font-weight:normal;font-stretch:normal;font-size:12px;line-height:125%;font-family:'5x5 Pixel';-inkscape-font-specification:'5x5 Pixel';letter-spacing:0.1px;word-spacing:0px;fill:#000000;fill-opacity:1;stroke:none"
           inkscape:connector-curvature="0" />
        <path
           d="m 627.1856,-12.216761 0,-8.708091 1.74162,0 0,3.483236 1.74162,0 0,1.741619 -1.74162,0 0,3.483236 -1.74162,0"
           id="path7712"
           style="font-style:normal;font-variant:normal;font-weight:normal;font-stretch:normal;font-size:12px;line-height:125%;font-family:'5x5 Pixel';-inkscape-font-specification:'5x5 Pixel';letter-spacing:0.1px;word-spacing:0px;fill:#000000;fill-opacity:1;stroke:none"
           inkscape:connector-curvature="0" />
        <path
           d="m 632.41046,-19.183234 0,-1.741618 1.74162,0 0,1.741618 -1.74162,0"
           id="path5108"
           style="font-style:normal;font-variant:normal;font-weight:normal;font-stretch:normal;font-size:12px;line-height:125%;font-family:'5x5 Pixel';-inkscape-font-specification:'5x5 Pixel';letter-spacing:0.1px;word-spacing:0px;fill:#000000;fill-opacity:1;stroke:none"
           inkscape:connector-curvature="0" />
        <path
           d="m 636.0098,-12.216761 0,-8.708091 8.70809,0 0,1.741618 -6.96647,0 0,1.741618 5.22486,0 0,1.741619 -5.22486,0 0,1.741618 6.96647,0 0,1.741618 -8.70809,0"
           id="path5110"
           style="font-style:normal;font-variant:normal;font-weight:normal;font-stretch:normal;font-size:12px;line-height:125%;font-family:'5x5 Pixel';-inkscape-font-specification:'5x5 Pixel';letter-spacing:0.1px;word-spacing:0px;fill:#000000;fill-opacity:1;stroke:none"
           inkscape:connector-curvature="0" />
        <path
           d="m 653.55223,-13.9567 0,1.75 1.71875,0 0,-1.75 -1.71875,0 z"
           id="path7491"
           style="font-style:normal;font-variant:normal;font-weight:normal;font-stretch:normal;font-size:12px;line-height:125%;font-family:'5x5 Pixel';-inkscape-font-specification:'5x5 Pixel';letter-spacing:0.1px;word-spacing:0px;fill:#000000;fill-opacity:1;stroke:none"
           inkscape:connector-curvature="0" />
        <path
           d="m 648.95848,-15.7067 2.84375,0 0,1.75 1.75,0 0,-1.75 1.71875,0 0,-5.21875 -6.3125,0 0,1.75 4.59375,0 0,1.71875 -4.59375,0 0,1.75 z"
           id="path7489"
           style="font-style:normal;font-variant:normal;font-weight:normal;font-stretch:normal;font-size:12px;line-height:125%;font-family:'5x5 Pixel';-inkscape-font-specification:'5x5 Pixel';letter-spacing:0.1px;word-spacing:0px;fill:#000000;fill-opacity:1;stroke:none"
           inkscape:connector-curvature="0" />
        <path
           d="m 648.95848,-15.7067 0,-1.75 -0.65625,0 0,-1.71875 0.65625,0 0,-1.75 -2.375,0 0,8.71875 1.71875,0 0,-3.5 0.65625,0 z"
           id="path5112"
           style="font-style:normal;font-variant:normal;font-weight:normal;font-stretch:normal;font-size:12px;line-height:125%;font-family:'5x5 Pixel';-inkscape-font-specification:'5x5 Pixel';letter-spacing:0.1px;word-spacing:0px;fill:#000000;fill-opacity:1;stroke:none"
           inkscape:connector-curvature="0" />
        <path
           d="m 657.14144,-12.216761 0,-1.741618 6.96647,0 0,-1.741618 -6.96647,0 0,-5.224855 8.70809,0 0,1.741618 -6.96647,0 0,1.741618 6.96647,0 0,5.224855 -8.70809,0"
           id="path5114"
           style="font-style:normal;font-variant:normal;font-weight:normal;font-stretch:normal;font-size:12px;line-height:125%;font-family:'5x5 Pixel';-inkscape-font-specification:'5x5 Pixel';letter-spacing:0.1px;word-spacing:0px;fill:#000000;fill-opacity:1;stroke:none"
           inkscape:connector-curvature="0" />
        <path
           d="m 675.98973,-12.2067 4.375,0 0,-8.71875 -4.375,0 0,1.75 2.625,0 0,5.21875 -2.625,0 0,1.75 z"
           id="path7499"
           style="font-style:normal;font-variant:normal;font-weight:normal;font-stretch:normal;font-size:12px;line-height:125%;font-family:'5x5 Pixel';-inkscape-font-specification:'5x5 Pixel';letter-spacing:0.1px;word-spacing:0px;fill:#000000;fill-opacity:1;stroke:none"
           inkscape:connector-curvature="0" />
        <path
           d="m 675.98973,-12.2067 0,-1.75 -2.59375,0 0,-5.21875 2.59375,0 0,-1.75 -4.34375,0 0,8.71875 4.34375,0 z"
           id="path5116"
           style="font-style:normal;font-variant:normal;font-weight:normal;font-stretch:normal;font-size:12px;line-height:125%;font-family:'5x5 Pixel';-inkscape-font-specification:'5x5 Pixel';letter-spacing:0.1px;word-spacing:0px;fill:#000000;fill-opacity:1;stroke:none"
           inkscape:connector-curvature="0" />
        <path
           d="m 689.17723,-13.9567 0,1.75 1.75,0 0,-1.75 -1.75,0 z"
           id="path7496"
           style="font-style:normal;font-variant:normal;font-weight:normal;font-stretch:normal;font-size:12px;line-height:125%;font-family:'5x5 Pixel';-inkscape-font-specification:'5x5 Pixel';letter-spacing:0.1px;word-spacing:0px;fill:#000000;fill-opacity:1;stroke:none"
           inkscape:connector-curvature="0" />
        <path
           d="m 686.20848,-15.7067 1.25,0 0,1.75 1.71875,0 0,-1.75 1.75,0 0,-5.21875 -4.71875,0 0,1.75 2.96875,0 0,1.71875 -2.96875,0 0,1.75 z"
           id="path7494"
           style="font-style:normal;font-variant:normal;font-weight:normal;font-stretch:normal;font-size:12px;line-height:125%;font-family:'5x5 Pixel';-inkscape-font-specification:'5x5 Pixel';letter-spacing:0.1px;word-spacing:0px;fill:#000000;fill-opacity:1;stroke:none"
           inkscape:connector-curvature="0" />
        <path
           d="m 686.20848,-15.7067 0,-1.75 -2.25,0 0,-1.71875 2.25,0 0,-1.75 -4,0 0,8.71875 1.75,0 0,-3.5 2.25,0 z"
           id="path5118"
           style="font-style:normal;font-variant:normal;font-weight:normal;font-stretch:normal;font-size:12px;line-height:125%;font-family:'5x5 Pixel';-inkscape-font-specification:'5x5 Pixel';letter-spacing:0.1px;word-spacing:0px;fill:#000000;fill-opacity:1;stroke:none"
           inkscape:connector-curvature="0" />
        <path
           d="m 692.78656,-12.216761 0,-8.708091 8.70809,0 0,1.741618 -6.96647,0 0,5.224855 5.22485,0 0,-1.741618 -3.48323,0 0,-1.741619 5.22485,0 0,5.224855 -8.70809,0"
           id="path5120"
           style="font-style:normal;font-variant:normal;font-weight:normal;font-stretch:normal;font-size:12px;line-height:125%;font-family:'5x5 Pixel';-inkscape-font-specification:'5x5 Pixel';letter-spacing:0.1px;word-spacing:0px;fill:#000000;fill-opacity:1;stroke:none"
           inkscape:connector-curvature="0" />
        <path
           d="m 668.19147,-12.542397 0,-1.581587 1.5816,0 0,1.581587 -1.5816,0"
           id="path5123"
           style="font-style:normal;font-variant:normal;font-weight:normal;font-stretch:normal;font-size:10.89741707px;line-height:125%;font-family:Notalot35;-inkscape-font-specification:Notalot35;letter-spacing:0px;word-spacing:0px;fill:#000000;fill-opacity:1;stroke:none"
           inkscape:connector-curvature="0" />
      </g>
    </g>
  </g>
</svg>
